<svg xmlns="http://www.w3.org/2000/svg" xmlns:xlink="http://www.w3.org/1999/xlink" width="1280" zoomAndPan="magnify" viewBox="0 0 960 540.000001" height="720" preserveAspectRatio="xMidYMid meet" version="1.0"><defs><clipPath id="ff760949b3"><path d="M 227.117188 17.25 L 697 17.25 L 697 112 L 227.117188 112 Z M 227.117188 17.25 " clip-rule="nonzero"/></clipPath><clipPath id="c0a07fcc03"><path d="M 227.117188 109 L 697 109 L 697 415 L 227.117188 415 Z M 227.117188 109 " clip-rule="nonzero"/></clipPath><clipPath id="127a04fdb6"><path d="M 614 449 L 673 449 L 673 508.339844 L 614 508.339844 Z M 614 449 " clip-rule="nonzero"/></clipPath><clipPath id="8c688ae4d9"><path d="M 696 449 L 719.707031 449 L 719.707031 474 L 696 474 Z M 696 449 " clip-rule="nonzero"/></clipPath></defs><g clip-path="url(#ff760949b3)"><path fill="#57606f" d="M 227.152344 17.25 L 227.152344 111.015625 L 696.21875 111.015625 L 696.21875 17.25 Z M 227.152344 17.25 " fill-opacity="1" fill-rule="nonzero"/></g><g clip-path="url(#c0a07fcc03)"><path fill="#ecf0f1" d="M 227.152344 109.84375 L 227.152344 414.578125 L 696.21875 414.578125 L 696.21875 109.84375 Z M 227.152344 109.84375 " fill-opacity="1" fill-rule="nonzero"/></g><path fill="#5f4534" d="M 262.332031 449.738281 C 275.289062 449.738281 285.785156 460.230469 285.785156 473.179688 C 285.785156 486.132812 275.289062 496.621094 262.332031 496.621094 C 249.375 496.621094 238.878906 486.132812 238.878906 473.179688 C 238.878906 460.230469 249.375 449.738281 262.332031 449.738281 Z M 262.332031 449.738281 " fill-opacity="1" fill-rule="nonzero"/><g clip-path="url(#127a04fdb6)"><path fill="#5f4534" d="M 672.765625 479.039062 C 672.765625 480 672.71875 480.957031 672.625 481.914062 C 672.53125 482.867188 672.390625 483.816406 672.203125 484.757812 C 672.015625 485.699219 671.78125 486.628906 671.503906 487.546875 C 671.222656 488.464844 670.902344 489.367188 670.53125 490.253906 C 670.164062 491.140625 669.753906 492.007812 669.304688 492.851562 C 668.851562 493.699219 668.359375 494.519531 667.824219 495.320312 C 667.289062 496.117188 666.71875 496.886719 666.109375 497.628906 C 665.5 498.371094 664.855469 499.082031 664.179688 499.757812 C 663.5 500.4375 662.789062 501.082031 662.046875 501.691406 C 661.304688 502.300781 660.535156 502.871094 659.734375 503.402344 C 658.9375 503.9375 658.113281 504.429688 657.269531 504.882812 C 656.421875 505.332031 655.554688 505.742188 654.667969 506.109375 C 653.78125 506.476562 652.878906 506.800781 651.957031 507.078125 C 651.039062 507.359375 650.109375 507.589844 649.167969 507.777344 C 648.226562 507.964844 647.277344 508.105469 646.320312 508.199219 C 645.367188 508.292969 644.410156 508.339844 643.449219 508.339844 C 642.488281 508.339844 641.53125 508.292969 640.574219 508.199219 C 639.617188 508.105469 638.671875 507.964844 637.730469 507.777344 C 636.785156 507.589844 635.855469 507.359375 634.9375 507.078125 C 634.019531 506.800781 633.117188 506.476562 632.230469 506.109375 C 631.34375 505.742188 630.476562 505.332031 629.628906 504.882812 C 628.78125 504.429688 627.957031 503.9375 627.160156 503.402344 C 626.363281 502.871094 625.59375 502.300781 624.851562 501.691406 C 624.109375 501.082031 623.398438 500.4375 622.71875 499.757812 C 622.039062 499.082031 621.394531 498.371094 620.785156 497.628906 C 620.175781 496.886719 619.605469 496.117188 619.070312 495.320312 C 618.539062 494.519531 618.046875 493.699219 617.59375 492.851562 C 617.140625 492.007812 616.730469 491.140625 616.363281 490.253906 C 615.996094 489.367188 615.671875 488.464844 615.394531 487.546875 C 615.113281 486.628906 614.882812 485.699219 614.695312 484.757812 C 614.507812 483.816406 614.367188 482.867188 614.273438 481.914062 C 614.179688 480.957031 614.132812 480 614.132812 479.039062 C 614.132812 478.082031 614.179688 477.125 614.273438 476.167969 C 614.367188 475.214844 614.507812 474.265625 614.695312 473.324219 C 614.882812 472.382812 615.113281 471.453125 615.394531 470.535156 C 615.671875 469.617188 615.996094 468.714844 616.363281 467.828125 C 616.730469 466.941406 617.140625 466.074219 617.59375 465.226562 C 618.046875 464.382812 618.539062 463.558594 619.070312 462.761719 C 619.605469 461.964844 620.175781 461.191406 620.785156 460.453125 C 621.394531 459.710938 622.039062 459 622.71875 458.320312 C 623.398438 457.640625 624.109375 457 624.851562 456.390625 C 625.59375 455.78125 626.363281 455.210938 627.160156 454.675781 C 627.957031 454.144531 628.78125 453.652344 629.628906 453.199219 C 630.476562 452.746094 631.34375 452.335938 632.230469 451.96875 C 633.117188 451.601562 634.019531 451.277344 634.9375 451 C 635.855469 450.722656 636.785156 450.488281 637.730469 450.300781 C 638.671875 450.113281 639.617188 449.972656 640.574219 449.878906 C 641.53125 449.785156 642.488281 449.738281 643.449219 449.738281 C 644.410156 449.738281 645.367188 449.785156 646.320312 449.878906 C 647.277344 449.972656 648.226562 450.113281 649.167969 450.300781 C 650.109375 450.488281 651.039062 450.722656 651.957031 451 C 652.878906 451.277344 653.78125 451.601562 654.667969 451.96875 C 655.554688 452.335938 656.421875 452.746094 657.269531 453.199219 C 658.113281 453.652344 658.9375 454.144531 659.734375 454.675781 C 660.535156 455.210938 661.304688 455.78125 662.046875 456.390625 C 662.789062 457 663.5 457.640625 664.179688 458.320312 C 664.855469 459 665.5 459.710938 666.109375 460.453125 C 666.71875 461.191406 667.289062 461.964844 667.824219 462.761719 C 668.359375 463.558594 668.851562 464.382812 669.304688 465.226562 C 669.753906 466.074219 670.164062 466.941406 670.53125 467.828125 C 670.902344 468.714844 671.222656 469.617188 671.503906 470.535156 C 671.78125 471.453125 672.015625 472.382812 672.203125 473.324219 C 672.390625 474.265625 672.53125 475.214844 672.625 476.167969 C 672.71875 477.125 672.765625 478.082031 672.765625 479.039062 Z M 672.765625 479.039062 " fill-opacity="1" fill-rule="nonzero"/></g><g clip-path="url(#8c688ae4d9)"><path fill="#5f4534" d="M 707.945312 449.738281 C 714.417969 449.738281 719.671875 454.988281 719.671875 461.460938 C 719.671875 467.929688 714.417969 473.179688 707.945312 473.179688 C 701.472656 473.179688 696.21875 467.929688 696.21875 461.460938 C 696.21875 454.988281 701.472656 449.738281 707.945312 449.738281 Z M 707.945312 449.738281 " fill-opacity="1" fill-rule="nonzero"/></g><path fill="#d7deed" d="M 274.058594 156.726562 L 649.3125 156.726562 L 649.3125 367.695312 L 274.058594 367.695312 Z M 274.058594 156.726562 " fill-opacity="1" fill-rule="nonzero"/><path fill="#febe76" d="M 461.683594 227.046875 C 390.445312 227.046875 332.691406 284.773438 332.691406 355.972656 C 332.691406 359.925781 332.867188 363.839844 333.21875 367.695312 C 334.730469 384.457031 339.445312 400.289062 346.761719 414.578125 C 364.71875 449.667969 398.277344 475.453125 438.300781 482.777344 C 439.390625 464.351562 454.695312 449.738281 473.410156 449.738281 C 477.878906 449.738281 482.148438 450.582031 486.078125 452.09375 C 490.414062 430.691406 509.34375 414.578125 532.042969 414.578125 C 536.101562 414.578125 540.054688 415.09375 543.808594 416.066406 C 543.78125 415.574219 543.773438 415.082031 543.773438 414.578125 C 543.773438 395.15625 559.519531 379.414062 578.953125 379.414062 C 582.1875 379.414062 585.320312 379.859375 588.296875 380.679688 C 589.128906 376.425781 589.75 372.089844 590.140625 367.695312 C 590.503906 363.839844 590.679688 359.925781 590.679688 355.972656 C 590.679688 284.773438 532.925781 227.046875 461.683594 227.046875 Z M 461.683594 227.046875 " fill-opacity="1" fill-rule="nonzero"/><path fill="#5f4534" d="M 543.773438 461.460938 C 550.246094 461.460938 555.5 466.710938 555.5 473.179688 C 555.5 479.648438 550.246094 484.898438 543.773438 484.898438 C 537.296875 484.898438 532.042969 479.648438 532.042969 473.179688 C 532.042969 466.710938 537.296875 461.460938 543.773438 461.460938 Z M 543.773438 461.460938 " fill-opacity="1" fill-rule="nonzero"/><path fill="#5f4534" d="M 496.863281 355.972656 C 503.339844 355.972656 508.589844 361.226562 508.589844 367.695312 C 508.589844 374.164062 503.339844 379.414062 496.863281 379.414062 C 490.390625 379.414062 485.136719 374.164062 485.136719 367.695312 C 485.136719 361.226562 490.390625 355.972656 496.863281 355.972656 Z M 496.863281 355.972656 " fill-opacity="1" fill-rule="nonzero"/><path fill="#5f4534" d="M 508.589844 303.230469 C 508.589844 304.191406 508.542969 305.148438 508.449219 306.105469 C 508.355469 307.058594 508.214844 308.007812 508.027344 308.949219 C 507.839844 309.890625 507.609375 310.820312 507.328125 311.738281 C 507.050781 312.65625 506.726562 313.558594 506.359375 314.445312 C 505.992188 315.332031 505.582031 316.199219 505.128906 317.042969 C 504.675781 317.890625 504.183594 318.714844 503.652344 319.511719 C 503.117188 320.308594 502.546875 321.078125 501.9375 321.820312 C 501.328125 322.5625 500.683594 323.273438 500.003906 323.949219 C 499.324219 324.628906 498.617188 325.273438 497.875 325.882812 C 497.132812 326.492188 496.359375 327.0625 495.5625 327.59375 C 494.765625 328.128906 493.941406 328.621094 493.09375 329.074219 C 492.246094 329.527344 491.382812 329.9375 490.492188 330.304688 C 489.605469 330.671875 488.703125 330.992188 487.785156 331.273438 C 486.867188 331.550781 485.9375 331.78125 484.996094 331.96875 C 484.050781 332.15625 483.105469 332.296875 482.148438 332.390625 C 481.191406 332.484375 480.234375 332.535156 479.273438 332.535156 C 478.316406 332.535156 477.355469 332.484375 476.402344 332.390625 C 475.445312 332.296875 474.496094 332.15625 473.554688 331.96875 C 472.613281 331.78125 471.683594 331.550781 470.765625 331.273438 C 469.847656 330.992188 468.941406 330.671875 468.054688 330.304688 C 467.167969 329.9375 466.300781 329.527344 465.457031 329.074219 C 464.609375 328.621094 463.785156 328.128906 462.988281 327.59375 C 462.1875 327.0625 461.417969 326.492188 460.675781 325.882812 C 459.933594 325.273438 459.222656 324.628906 458.542969 323.949219 C 457.867188 323.273438 457.222656 322.5625 456.613281 321.820312 C 456.003906 321.078125 455.433594 320.308594 454.898438 319.511719 C 454.367188 318.714844 453.871094 317.890625 453.417969 317.042969 C 452.96875 316.199219 452.558594 315.332031 452.191406 314.445312 C 451.824219 313.558594 451.5 312.65625 451.21875 311.738281 C 450.941406 310.820312 450.707031 309.890625 450.523438 308.949219 C 450.335938 308.007812 450.195312 307.058594 450.097656 306.105469 C 450.003906 305.148438 449.957031 304.191406 449.957031 303.230469 C 449.957031 302.273438 450.003906 301.316406 450.097656 300.359375 C 450.195312 299.40625 450.335938 298.457031 450.523438 297.515625 C 450.707031 296.574219 450.941406 295.644531 451.21875 294.726562 C 451.5 293.808594 451.824219 292.90625 452.191406 292.019531 C 452.558594 291.132812 452.96875 290.265625 453.417969 289.417969 C 453.871094 288.574219 454.367188 287.75 454.898438 286.953125 C 455.433594 286.15625 456.003906 285.386719 456.613281 284.644531 C 457.222656 283.902344 457.867188 283.191406 458.542969 282.511719 C 459.222656 281.835938 459.933594 281.191406 460.675781 280.582031 C 461.417969 279.972656 462.1875 279.402344 462.988281 278.867188 C 463.785156 278.335938 464.609375 277.84375 465.457031 277.390625 C 466.300781 276.9375 467.167969 276.527344 468.054688 276.160156 C 468.941406 275.792969 469.847656 275.472656 470.765625 275.191406 C 471.683594 274.914062 472.613281 274.679688 473.554688 274.492188 C 474.496094 274.304688 475.445312 274.164062 476.402344 274.070312 C 477.355469 273.976562 478.316406 273.929688 479.273438 273.929688 C 480.234375 273.929688 481.191406 273.976562 482.148438 274.070312 C 483.105469 274.164062 484.050781 274.304688 484.996094 274.492188 C 485.9375 274.679688 486.867188 274.914062 487.785156 275.191406 C 488.703125 275.472656 489.605469 275.792969 490.492188 276.160156 C 491.382812 276.527344 492.246094 276.9375 493.09375 277.390625 C 493.941406 277.84375 494.765625 278.335938 495.5625 278.867188 C 496.359375 279.402344 497.132812 279.972656 497.875 280.582031 C 498.617188 281.191406 499.324219 281.835938 500.003906 282.511719 C 500.683594 283.191406 501.328125 283.902344 501.9375 284.644531 C 502.546875 285.386719 503.117188 286.15625 503.652344 286.953125 C 504.183594 287.75 504.675781 288.574219 505.128906 289.417969 C 505.582031 290.265625 505.992188 291.132812 506.359375 292.019531 C 506.726562 292.90625 507.050781 293.808594 507.328125 294.726562 C 507.609375 295.644531 507.839844 296.574219 508.027344 297.515625 C 508.214844 298.457031 508.355469 299.40625 508.449219 300.359375 C 508.542969 301.316406 508.589844 302.273438 508.589844 303.230469 Z M 508.589844 303.230469 " fill-opacity="1" fill-rule="nonzero"/><path fill="#5f4534" d="M 408.914062 355.972656 C 418.625 355.972656 426.503906 363.851562 426.503906 373.554688 C 426.503906 383.261719 418.625 391.136719 408.914062 391.136719 C 399.207031 391.136719 391.324219 383.261719 391.324219 373.554688 C 391.324219 363.851562 399.207031 355.972656 408.914062 355.972656 Z M 408.914062 355.972656 " fill-opacity="1" fill-rule="nonzero"/><path fill="#5f4534" d="M 379.597656 309.09375 C 386.070312 309.09375 391.324219 314.34375 391.324219 320.8125 C 391.324219 327.28125 386.070312 332.535156 379.597656 332.535156 C 373.125 332.535156 367.871094 327.28125 367.871094 320.8125 C 367.871094 314.34375 373.125 309.09375 379.597656 309.09375 Z M 379.597656 309.09375 " fill-opacity="1" fill-rule="nonzero"/><path fill="#e3835a" d="M 332.691406 52.414062 L 356.144531 52.414062 L 356.144531 75.855469 L 332.691406 75.855469 Z M 332.691406 52.414062 " fill-opacity="1" fill-rule="nonzero"/><path fill="#5f4534" d="M 344.417969 473.179688 C 350.890625 473.179688 356.144531 478.429688 356.144531 484.898438 C 356.144531 491.371094 350.890625 496.621094 344.417969 496.621094 C 337.945312 496.621094 332.691406 491.371094 332.691406 484.898438 C 332.691406 478.429688 337.945312 473.179688 344.417969 473.179688 Z M 344.417969 473.179688 " fill-opacity="1" fill-rule="nonzero"/><path fill="#80af52" d="M 297.511719 52.414062 L 320.964844 52.414062 L 320.964844 75.855469 L 297.511719 75.855469 Z M 297.511719 52.414062 " fill-opacity="1" fill-rule="nonzero"/><path fill="#ffd24d" d="M 262.332031 52.414062 L 285.785156 52.414062 L 285.785156 75.855469 L 262.332031 75.855469 Z M 262.332031 52.414062 " fill-opacity="1" fill-rule="nonzero"/><path fill="#afb9d2" d="M 391.324219 203.609375 C 391.324219 197.132812 386.074219 191.886719 379.597656 191.886719 L 274.058594 191.886719 L 274.058594 215.328125 L 379.597656 215.328125 C 386.074219 215.328125 391.324219 210.082031 391.324219 203.609375 Z M 391.324219 203.609375 " fill-opacity="1" fill-rule="nonzero"/><path fill="#afb9d2" d="M 649.3125 191.886719 L 543.773438 191.886719 C 537.296875 191.886719 532.042969 197.132812 532.042969 203.609375 C 532.042969 210.082031 537.296875 215.328125 543.773438 215.328125 L 649.3125 215.328125 Z M 649.3125 191.886719 " fill-opacity="1" fill-rule="nonzero"/></svg>