<svg width="164" height="44" viewBox="0 0 164 44" fill="none" xmlns="http://www.w3.org/2000/svg">
<path d="M4.38282 44C0.771899 40.6019 -1.23414 35.3338 0.8321 29.7842C1.8752 26.9692 3.56033 24.8781 6.24841 23.4103C11.0027 20.8366 15.6768 18.0614 20.3509 15.3071C21.1332 14.8446 21.7351 14.8646 22.4973 15.2669C25.6268 16.9358 27.1714 20.7763 26.0481 24.1741C25.3058 26.4261 23.9417 28.1149 21.8353 29.2809C18.1841 31.3117 14.5735 33.4431 10.9626 35.5544C9.57844 36.3788 8.37485 37.4445 7.27154 38.6308C5.84719 40.1396 4.76393 41.8284 4.38282 44Z" fill="white"/>
<path d="M2.15609 25.9036C-1.27422 20.8969 -0.271207 14.6838 2.83813 10.8232C3.86134 9.55647 5.28548 8.83259 6.64963 8.04851C11.1231 5.45455 15.5965 2.90091 20.07 0.286997C20.6517 -0.0548179 21.1333 -0.0950686 21.7351 0.186476C24.4031 1.47331 25.9277 3.6047 26.1082 6.50016C26.3088 9.61675 24.9448 12.0496 22.1964 13.6382C18.064 16.0108 13.9315 18.3701 9.79885 20.7159C8.17392 21.6408 6.56911 22.5658 4.94425 23.4906C3.88131 24.1341 2.95854 24.8982 2.15609 25.9036Z" fill="white"/>
<path d="M89.88 31.9537C87.4125 31.9537 84.9451 31.9336 82.4777 31.9738C81.8157 31.9939 81.6151 31.7929 81.6752 31.1494C81.7354 30.494 81.7354 29.8343 81.6752 29.1789C81.615 28.4953 81.8357 28.3143 82.5378 28.3143C87.0915 28.3545 91.6652 28.3344 96.219 28.3344C96.6767 28.345 97.1342 28.3046 97.583 28.2137C99.1879 27.8116 100.091 26.5046 99.9301 24.7955C99.7899 23.388 98.5058 22.1816 97.0013 22.1613C93.8117 22.1211 90.6221 22.1613 87.4526 22.1412C84.4034 22.1211 81.9961 19.9495 81.5147 16.8329C81.0935 14.0382 82.9192 11.1227 85.6472 10.238C86.2487 10.037 86.8787 9.93509 87.5128 9.93635C92.3674 9.93635 97.222 9.95644 102.057 9.91626C102.778 9.91626 103.019 10.1375 102.959 10.8412C102.879 11.6857 103.3 12.8117 102.799 13.3345C102.257 13.9175 101.114 13.5154 100.251 13.5154C96.0986 13.5355 91.9261 13.5154 87.7736 13.5355C86.1687 13.5355 85.0453 14.6615 85.0654 16.1293C85.0855 17.2755 85.908 18.3009 87.0514 18.5221C87.5016 18.603 87.9581 18.6434 88.4155 18.6427C91.3239 18.6628 94.213 18.6427 97.1217 18.6427C100.913 18.6628 103.802 21.4979 103.842 25.2379C103.882 28.9376 100.993 31.8934 97.2221 31.9534C94.7546 31.9738 92.3073 31.9537 89.88 31.9537Z" fill="white"/>
<path d="M138.087 24.5353C138.709 25.1385 139.31 25.7417 139.952 26.3047C140.334 26.6465 140.334 26.8877 140.073 27.31C138.749 29.3612 136.843 30.6478 134.576 31.3918C129.661 33.0205 124.987 32.7189 120.955 29.0996C115.599 24.314 116.301 16.0702 122.259 11.7673C126.471 8.71096 133.292 9.19355 136.903 11.4858C139.43 13.0944 140.654 15.5072 141.055 18.4027C141.189 19.4291 141.243 20.4644 141.216 21.4992C141.216 21.9818 141.035 22.1426 140.554 22.1426C135.298 22.1225 130.049 22.1225 124.806 22.1426C124.285 22.1426 124.205 21.9214 124.205 21.4791C124.165 19.3476 124.144 19.3476 126.271 19.3476C129.661 19.3476 133.051 19.3275 136.421 19.3677C137.164 19.3677 137.344 19.2069 137.164 18.4428C136.361 15.2255 134.175 13.3557 130.865 13.0139C126.993 12.6118 123.884 13.8383 121.838 17.2163C118.969 21.9415 122.58 28.6172 128.116 28.8986C129.38 28.9589 130.644 28.9187 131.888 28.6372C134.877 27.9334 136.241 27.0487 138.087 24.5353Z" fill="white"/>
<path d="M52.2271 20.7572C52.2271 17.2787 52.2471 13.8203 52.207 10.3417C52.207 9.73849 52.3675 9.53738 52.9693 9.57763C53.6304 9.6279 54.2943 9.6279 54.9553 9.57763C55.6976 9.51729 55.9182 9.71812 55.9182 10.5026C55.8782 17.0173 55.8982 23.532 55.8982 30.0467C55.8982 31.9569 55.8982 31.9569 53.9724 31.9569C52.2071 31.9569 52.2071 31.9569 52.2071 30.2478C52.2271 27.0709 52.2271 23.9141 52.2271 20.7572Z" fill="white"/>
<path d="M54.112 7.70868C53.6493 7.70829 53.2057 7.52388 52.8785 7.19594C52.5513 6.868 52.3673 6.42334 52.3669 5.95956C52.3669 5.01426 53.1694 4.23011 54.112 4.23011C54.3472 4.22724 54.5807 4.27156 54.7986 4.36047C55.0165 4.44938 55.2145 4.58109 55.3808 4.74784C55.5472 4.91458 55.6786 5.113 55.7673 5.33141C55.856 5.54983 55.9003 5.78382 55.8974 6.01962C55.8775 6.9848 55.0952 7.70868 54.112 7.70868Z" fill="white"/>
<path d="M78.4055 9.91946C75.577 9.99989 72.7485 9.61783 69.8999 9.71842C63.7213 9.93962 58.8269 14.9061 58.8868 21.0589C58.947 27.1714 63.8416 31.9368 70.0805 31.9569C71.6853 31.9569 73.2902 31.977 74.8951 31.9368C75.4768 31.9167 75.5972 32.1178 75.4368 32.6406C74.9953 34.1486 74.0727 35.1942 72.5882 35.7371C71.6051 36.0986 70.5621 36.0986 69.5389 36.1593C68.7766 36.1996 67.7134 35.7571 67.3322 36.2799C66.9511 36.8027 67.252 37.808 67.1718 38.6121C67.1116 39.2354 67.3723 39.3356 67.914 39.3158C69.8398 39.2555 71.7656 39.2354 73.6713 39.0544C75.4567 38.8935 76.8008 38.0491 77.7636 36.5611C78.5661 35.3346 78.9472 33.9673 78.9472 32.4994V10.6433C78.9472 10.221 79.007 9.8993 78.4055 9.91946ZM75.5369 14.3028C75.4567 16.5548 75.5169 18.8266 75.5169 21.099C75.5169 23.4113 75.4968 25.7438 75.5369 28.056C75.5369 28.5587 75.4366 28.7598 74.895 28.7397C73.2701 28.6994 71.6251 28.7598 70.0002 28.6793C65.7672 28.4783 62.5378 25.0195 62.5779 20.8375C62.618 16.615 65.8477 13.2773 70.1206 13.1164C71.5853 13.0561 73.0494 12.9555 74.4937 13.1365C75.1959 13.2371 75.577 13.4382 75.5369 14.3028Z" fill="white"/>
<path d="M49.7584 20.5938C49.6182 15.2654 45.5658 10.7212 40.1291 10.0375C37.9826 9.75607 35.8362 9.95711 33.6697 9.91693C33.1882 9.91693 33.0277 9.79632 33.0477 9.29364C33.0879 8.4089 33.0879 7.52422 33.0477 6.61939C33.0277 5.79499 33.4088 4.72929 32.8873 4.22661C32.3657 3.74402 31.3025 4.16627 30.48 4.08612C29.818 4.02578 29.6174 4.22661 29.6174 4.93061C29.6575 9.29385 29.6375 13.6571 29.6375 18.0204C29.6375 22.4037 29.6575 26.8072 29.6174 31.1906C29.6174 31.7938 29.7576 31.9949 30.3797 31.9547C31.5633 31.9145 32.7268 31.9547 33.9103 31.9346C36.0969 31.8743 38.2634 32.0955 40.45 31.7737C44.663 31.15 49.939 27.2896 49.7584 20.5938ZM45.9669 21.8605C45.666 25.4396 42.5366 28.2144 38.6048 28.3552C36.9799 28.4155 35.335 28.3552 33.69 28.3953C33.1484 28.4154 33.028 28.2345 33.028 27.7117C33.048 25.3795 33.048 23.0669 33.048 20.7345V13.7573C33.048 13.4959 32.8675 13.0737 33.4292 13.0938C35.5757 13.1541 37.7422 12.8726 39.8686 13.315C43.8607 14.1595 46.308 17.6378 45.967 21.8605H45.9669Z" fill="white"/>
<path d="M117.965 29.4221C118.005 28.8189 117.744 28.6986 117.202 28.6986C116.34 28.7187 115.477 28.7187 114.615 28.6785C111.325 28.578 109.559 26.7282 109.539 23.4506V19.268L109.599 13.4972C109.7 13.2559 109.94 13.1755 110.382 13.1755C111.846 13.2359 116.6 13.5374 117.082 13.0147C117.563 12.4919 117.162 11.4865 117.242 10.6825C117.322 10.019 117.042 9.85809 116.42 9.87818C114.353 9.91837 112.287 9.87819 110.221 9.89828C109.94 9.89828 109.76 9.8581 109.639 9.71732L109.699 3.88623H106.009L106.069 9.63689C106.069 14.905 106.075 20.1731 106.089 25.4411C106.109 28.3164 108.215 30.8299 110.984 31.614C112.488 32.0363 113.993 32.177 115.517 32.1569C116.3 32.1369 117.383 32.3178 117.804 31.7548C118.205 31.2518 117.904 30.2264 117.965 29.4221Z" fill="white"/>
<path d="M163.523 18.6448C162.419 13.6381 157.826 9.95846 152.65 9.91849C149.922 9.8984 147.193 9.93858 144.465 9.8984C143.763 9.87803 143.623 10.1193 143.623 10.7628C143.643 15.3874 143.643 19.9919 143.643 24.6166C143.643 28.1153 143.663 31.6139 143.643 35.1126H143.623V39.3753H147.033V38.9731C147.078 38.8095 147.098 38.6401 147.093 38.4705C147.033 36.5603 147.093 34.63 147.053 32.6997C147.033 32.0764 147.254 31.9357 147.836 31.9357C149.641 31.9758 151.446 31.996 153.252 31.9357C159.972 31.6742 164.987 25.1796 163.523 18.6448ZM160.012 21.9222C159.711 25.5013 156.461 28.5375 152.71 28.6782C151.085 28.7386 149.44 28.6782 147.815 28.7184C147.254 28.7385 147.073 28.5575 147.073 27.9949C147.093 25.7027 147.093 23.4104 147.093 21.1182V14.1609C147.093 13.8794 146.973 13.4572 147.494 13.4773C149.701 13.5376 151.928 13.2159 154.094 13.6783C158.046 14.5228 160.353 17.7801 160.012 21.9222Z" fill="white"/>
</svg>
