<svg version="1.2" xmlns="http://www.w3.org/2000/svg" viewBox="0 0 1716 1492" width="1716" height="1492">
	<title>vecteezy_data-protection-concept-data-security-and-privacy-and_11006292-svg</title>
	<defs>
		<clipPath clipPathUnits="userSpaceOnUse" id="cp1">
			<path d="m1858 1691h-2000v-2000h2000zm-1729.33-275.26c-81.47 5.64-128.51 14.46-128.51 28.26 0 39.42 375.45 47.35 849.22 47.35 473.77 0 866.46-7.93 866.46-47.35 0-9.29-21.33-16.33-60.15-21.65 36.36-23.69 60.15-63.02 60.15-107.52v-13.27c0-72.39-62.94-131.08-140.58-131.08h-39.91q-2.43-13.09-6.37-25.65l0.82-88.35q0-0.12 0-0.23c0.03-19.7-19.56-35.72-43.89-35.81l-21.26-0.08-6.84-0.02 0.81-112.71c0.76-107.8-86.82-196-195.25-196.64q-0.6-0.01-1.18-0.01c-40.91 0-78.97 12.5-110.52 33.86v-542.83c0-17.66-7.25-33.63-18.93-45.08h-0.01q-0.03-0.03-0.05-0.06-0.01 0-0.01-0.01-0.03-0.02-0.06-0.05 0-0.01-0.01-0.01-0.02-0.02-0.05-0.05-0.01-0.01-0.01-0.02-0.03-0.02-0.05-0.04-0.01-0.01-0.02-0.02-0.02-0.02-0.05-0.05l-0.01-0.01q-0.03-0.03-0.05-0.05-0.01 0-0.02-0.02-0.02-0.02-0.05-0.04 0-0.01-0.01-0.02-0.03-0.02-0.05-0.04-0.01-0.01-0.02-0.02-0.02-0.03-0.05-0.05 0 0-0.02-0.01-0.02-0.03-0.04-0.05-0.02 0-0.02-0.02-0.04-0.03-0.08-0.07-0.02-0.01-0.03-0.03-0.01-0.01-0.03-0.03-0.02-0.01-0.04-0.04-0.02 0-0.02-0.02-0.02-0.02-0.05-0.04-0.01-0.01-0.02-0.02-0.02-0.03-0.05-0.04 0-0.02-0.02-0.03-0.02-0.01-0.04-0.04-0.01 0-0.03-0.02-0.02-0.02-0.04-0.04-0.02-0.01-0.02-0.02-0.03-0.03-0.05-0.05-0.01-0.01-0.02-0.01-0.02-0.02-0.05-0.05-0.01-0.01-0.02-0.01-0.02-0.03-0.05-0.06-0.01 0-0.01-0.01-0.03-0.03-0.06-0.05-0.01 0-0.01-0.01-0.03-0.03-0.07-0.06c-11.24-10.34-26.24-16.65-42.72-16.65h-519.01q-1.08-3.84-2.4-7.64l33.86-30.03-22.19-35.77-41.74 16.93c-11.22-11.62-24.27-20.87-38.4-27.58l2.7-44.99-40.98-9.6-4.62 10.96-11.36-2.66-14.33 33.91c-11.29 0.98-22.54 3.42-33.49 7.38l-30.27-34.16-15.05 9.35-0.93-1.05-35.76 22.2 17.35 42.78c-8.63 8.58-15.9 18.19-21.74 28.5l-35.23-2.12-2.14 9.13-13.85-0.84-9.6 40.99 43.48 18.39c-0.03 14.83 2.43 29.78 7.52 44.2l-35.55 31.52 20.85 33.63c-44.63 5.24-79.15 40.76-79.15 83.8 0 25.52 12.16 48.38 31.35 63.87h-41.03c-108.62 0-196.68 82.1-196.68 183.38 0 101.28 88.06 183.38 196.68 183.38h275.09v168.93h-219.6c-139.27 0-252.17 105.26-252.17 235.11 0 87.96 51.8 164.63 128.51 204.95zm1255.8-421.82c-30-11.75-62.94-18.24-97.52-18.24h-113.97c50.03 0 90.59-37.82 90.59-84.47 0-41.85-32.65-76.6-75.51-83.3 6.57-4.97 13.64-9.29 21.13-12.88 16.06-7.7 34.02-12.02 52.95-12.02q0.37 0.01 0.73 0.01c59.92 0.35 109.67 43.81 120.17 100.82 1.35 7.32 2.05 14.86 2.04 22.55q0 0.41 0 0.8zm-1090.65-702.21l37.41-15.18c5.54 5.61 11.52 10.66 17.84 15.12h-51.96q-1.65 0-3.29 0.06zm118.41-57.27c-10.79-5.31-20.27-13.61-27.08-24.59-18.67-30.1-10.4-69.3 18.19-89.42 7.26-2.6 14.78-3.85 22.25-3.85 22.25 0 43.98 11.16 56.57 31.45q3.56 5.77 5.84 11.9c-6.46 7.2-11.27 15.91-13.88 25.52-30.82 0.77-56.27 21.6-61.89 48.99z"/>
		</clipPath>
		<clipPath clipPathUnits="userSpaceOnUse" id="cp2">
			<path d="m1858 1691h-2000v-2000h2000zm-1729.33-275.26c-81.47 5.64-128.51 14.46-128.51 28.26 0 39.42 375.45 47.35 849.22 47.35 473.77 0 866.46-7.93 866.46-47.35 0-9.29-21.33-16.33-60.15-21.65 36.36-23.69 60.15-63.02 60.15-107.52v-13.27c0-72.39-62.94-131.08-140.58-131.08h-39.91q-2.43-13.09-6.37-25.65l0.82-88.35q0-0.12 0-0.23c0.03-19.7-19.56-35.72-43.89-35.81l-21.26-0.08-6.84-0.02 0.81-112.71c0.76-107.8-86.82-196-195.25-196.64q-0.6-0.01-1.18-0.01c-40.91 0-78.97 12.5-110.52 33.86v-542.83c0-17.66-7.25-33.63-18.93-45.08h-0.01q-0.03-0.03-0.05-0.06-0.01 0-0.01-0.01-0.03-0.02-0.06-0.05 0-0.01-0.01-0.01-0.02-0.02-0.05-0.05-0.01-0.01-0.01-0.02-0.03-0.02-0.05-0.04-0.01-0.01-0.02-0.02-0.02-0.02-0.05-0.05l-0.01-0.01q-0.03-0.03-0.05-0.05-0.01 0-0.02-0.02-0.02-0.02-0.05-0.04 0-0.01-0.01-0.02-0.03-0.02-0.05-0.04-0.01-0.01-0.02-0.02-0.02-0.03-0.05-0.05 0 0-0.02-0.01-0.02-0.03-0.04-0.05-0.02 0-0.02-0.02-0.04-0.03-0.08-0.07-0.02-0.01-0.03-0.03-0.01-0.01-0.03-0.03-0.02-0.01-0.04-0.04-0.02 0-0.02-0.02-0.02-0.02-0.05-0.04-0.01-0.01-0.02-0.02-0.02-0.03-0.05-0.04 0-0.02-0.02-0.03-0.02-0.01-0.04-0.04-0.01 0-0.03-0.02-0.02-0.02-0.04-0.04-0.02-0.01-0.02-0.02-0.03-0.03-0.05-0.05-0.01-0.01-0.02-0.01-0.02-0.02-0.05-0.05-0.01-0.01-0.02-0.01-0.02-0.03-0.05-0.06-0.01 0-0.01-0.01-0.03-0.03-0.06-0.05-0.01 0-0.01-0.01-0.03-0.03-0.07-0.06c-11.24-10.34-26.24-16.65-42.72-16.65h-519.01q-1.08-3.84-2.4-7.64l33.86-30.03-22.19-35.77-41.74 16.93c-11.22-11.62-24.27-20.87-38.4-27.58l2.7-44.99-40.98-9.6-4.62 10.96-11.36-2.66-14.33 33.91c-11.29 0.98-22.54 3.42-33.49 7.38l-30.27-34.16-15.05 9.35-0.93-1.05-35.76 22.2 17.35 42.78c-8.63 8.58-15.9 18.19-21.74 28.5l-35.23-2.12-2.14 9.13-13.85-0.84-9.6 40.99 43.48 18.39c-0.03 14.83 2.43 29.78 7.52 44.2l-35.55 31.52 20.85 33.63c-44.63 5.24-79.15 40.76-79.15 83.8 0 25.52 12.16 48.38 31.35 63.87h-41.03c-108.62 0-196.68 82.1-196.68 183.38 0 101.28 88.06 183.38 196.68 183.38h275.09v168.93h-219.6c-139.27 0-252.17 105.26-252.17 235.11 0 87.96 51.8 164.63 128.51 204.95zm1255.8-421.82c-30-11.75-62.94-18.24-97.52-18.24h-113.97c50.03 0 90.59-37.82 90.59-84.47 0-41.85-32.65-76.6-75.51-83.3 6.57-4.97 13.64-9.29 21.13-12.88 16.06-7.7 34.02-12.02 52.95-12.02q0.37 0.01 0.73 0.01c59.92 0.35 109.67 43.81 120.17 100.82 1.35 7.32 2.05 14.86 2.04 22.55q0 0.41 0 0.8zm-1090.65-702.21l37.41-15.18c5.54 5.61 11.52 10.66 17.84 15.12h-51.96q-1.65 0-3.29 0.06zm118.41-57.27c-10.79-5.31-20.27-13.61-27.08-24.59-18.67-30.1-10.4-69.3 18.19-89.42 7.26-2.6 14.78-3.85 22.25-3.85 22.25 0 43.98 11.16 56.57 31.45q3.56 5.77 5.84 11.9c-6.46 7.2-11.27 15.91-13.88 25.52-30.82 0.77-56.27 21.6-61.89 48.99z"/>
		</clipPath>
		<clipPath clipPathUnits="userSpaceOnUse" id="cp3">
			<path d="m0 185h1716v1238h-1716z"/>
		</clipPath>
		<clipPath clipPathUnits="userSpaceOnUse" id="cp4">
			<path d="m1655.69 1422.35c-31.96-4.39-75.78-7.61-129.29-9.98q0.09-1.06 0.1-2.14l2.48-265.4q3.94 12.56 6.37 25.65h39.91c77.64 0 140.58 58.69 140.58 131.08v13.27c0 44.5-23.79 83.83-60.15 107.52zm-1527.02-6.61c-76.71-40.32-128.51-116.99-128.51-204.95 0-129.85 112.9-235.11 252.17-235.11h219.6v253.43c-8.32-18.52-17.49-35.58-25.55-45.67-3.94-4.93-8.8-9.13-14.17-12.72-1.96-1.31-4.1-2.18-6.28-2.61-1.22-1.47-2.66-2.6-4.35-3.13-11.49-3.64-24.6-3.22-37.17-5.06-5.89 6.13-14.05 8.08-22.05 8.08-14.05 0-27.62-6-27.62-6-0.78 1.43-0.85 2-0.35 2.98 23.64 45.78 30.73 82.29 28.91 111.17h-80.79c-4.68 0-8.36 4.05-7.99 8.78l10.78 106.32h5.18c-2.69 6.01-4.8 12.41-6.27 17.98-60.15 1.46-112.64 3.55-155.54 6.51zm290.17-8.74q0.17-0.94 0.33-1.86h21.24c-0.64-4.44-1.45-9.15-2.34-13.89h17.54l6.37-59.91c3.34-1.46 6.7-2.95 9.95-4.44 0 0.04 0 55.99 0 56.02q0 0.02 0 0.03 0 0.04 0 0.07 0 0.02 0 0.03 0 0.04 0 0.07 0 0.02 0 0.04 0 0.03 0 0.06 0 0.01 0 0.04 0 0.03 0 0.05 0 0.03 0 0.05 0 0.02 0 0.05 0 0.03 0 0.05 0 0.01 0 0.05 0 0.03 0 0.05 0 0.03 0 0.04 0 0.03 0 0.06 0 0.02 0 0.04 0 0.03 0 0.06 0 0.02 0 0.03 0 0.03 0 0.06 0 0.02 0 0.02 0.01 0.27 0.02 0.54 0 0.05 0 0.1 0 0.04 0 0.09v0.01c0.21 7.72 1.82 15.1 4.57 21.89-19.66 0.14-38.91 0.31-57.68 0.5zm25.22-130.85h-4.67q0.29-4.4 0.47-8.86c1.53 3.09 2.95 6.07 4.2 8.86zm940.19-256.09l-232.58-0.88v-167.32c8.59-17.34 21.11-32.38 36.39-43.95 42.86 6.7 75.51 41.45 75.51 83.3 0 46.65-40.56 84.47-90.59 84.47h113.97c34.58 0 67.52 6.49 97.52 18.24l-0.18 24.98h-0.03zm-912.32-213.31h-275.08c-108.63 0-196.69-82.1-196.69-183.38 0-101.28 88.06-183.38 196.69-183.38h41.02c-19.19-15.49-31.34-38.35-31.34-63.87 0-43.04 34.51-78.56 79.14-83.8l1.34 2.15 6.81-2.76q1.64-0.06 3.3-0.06h51.95c5.81 4.1 11.92 7.7 18.24 10.79l-2.87 47.66 40.98 9.6 4.64-10.95 11.34 2.66 15.17-35.89c10.65-0.86 21.28-3.03 31.65-6.55l3.71 4.18zm-30.21-565.44c-10.21 0-20.32-2.35-29.49-6.87 5.62-27.39 31.07-48.22 61.89-48.99-1.36 5.01-2.11 10.28-2.19 15.71q0 0.04 0 0.09 0 0 0 0.01 0 0.03 0 0.08 0 0 0 0.02 0 0.03 0 0.07 0 0.01 0 0.03 0 0.03 0 0.06 0 0.02 0 0.04 0 0.03 0 0.06 0 0.01 0 0.04 0 0.02 0 0.05 0 0.03 0 0.05 0 0.02 0 0.05 0 0.03 0 0.05 0 0.02 0 0.05 0 0.04 0 0.08 0 0.01 0 0.02v28.88q-3.67 3.54-7.95 6.57c-7.26 2.59-14.79 3.85-22.26 3.85z"/>
		</clipPath>
		<clipPath clipPathUnits="userSpaceOnUse" id="cp5">
			<path d="m1655.69 1422.35c-31.96-4.39-75.78-7.61-129.29-9.98q0.09-1.06 0.1-2.14l2.48-265.4q3.94 12.56 6.37 25.65h39.91c77.64 0 140.58 58.69 140.58 131.08v13.27c0 44.5-23.79 83.83-60.15 107.52zm-1527.02-6.61c-76.71-40.32-128.51-116.99-128.51-204.95 0-129.85 112.9-235.11 252.17-235.11h219.6v253.43c-8.32-18.52-17.49-35.58-25.55-45.67-3.94-4.93-8.8-9.13-14.17-12.72-1.96-1.31-4.1-2.18-6.28-2.61-1.22-1.47-2.66-2.6-4.35-3.13-11.49-3.64-24.6-3.22-37.17-5.06-5.89 6.13-14.05 8.08-22.05 8.08-14.05 0-27.62-6-27.62-6-0.78 1.43-0.85 2-0.35 2.98 23.64 45.78 30.73 82.29 28.91 111.17h-80.79c-4.68 0-8.36 4.05-7.99 8.78l10.78 106.32h5.18c-2.69 6.01-4.8 12.41-6.27 17.98-60.15 1.46-112.64 3.55-155.54 6.51zm290.17-8.74q0.17-0.94 0.33-1.86h21.24c-0.64-4.44-1.45-9.15-2.34-13.89h17.54l6.37-59.91c3.34-1.46 6.7-2.95 9.95-4.44 0 0.04 0 55.99 0 56.02q0 0.02 0 0.03 0 0.04 0 0.07 0 0.02 0 0.03 0 0.04 0 0.07 0 0.02 0 0.04 0 0.03 0 0.06 0 0.01 0 0.04 0 0.03 0 0.05 0 0.03 0 0.05 0 0.02 0 0.05 0 0.03 0 0.05 0 0.01 0 0.05 0 0.03 0 0.05 0 0.03 0 0.04 0 0.03 0 0.06 0 0.02 0 0.04 0 0.03 0 0.06 0 0.02 0 0.03 0 0.03 0 0.06 0 0.02 0 0.02 0.01 0.27 0.02 0.54 0 0.05 0 0.1 0 0.04 0 0.09v0.01c0.21 7.72 1.82 15.1 4.57 21.89-19.66 0.14-38.91 0.31-57.68 0.5zm25.22-130.85h-4.67q0.29-4.4 0.47-8.86c1.53 3.09 2.95 6.07 4.2 8.86zm940.19-256.09l-232.58-0.88v-167.32c8.59-17.34 21.11-32.38 36.39-43.95 42.86 6.7 75.51 41.45 75.51 83.3 0 46.65-40.56 84.47-90.59 84.47h113.97c34.58 0 67.52 6.49 97.52 18.24l-0.18 24.98h-0.03zm-912.32-213.31h-275.08c-108.63 0-196.69-82.1-196.69-183.38 0-101.28 88.06-183.38 196.69-183.38h41.02c-19.19-15.49-31.34-38.35-31.34-63.87 0-43.04 34.51-78.56 79.14-83.8l1.34 2.15 6.81-2.76q1.64-0.06 3.3-0.06h51.95c5.81 4.1 11.92 7.7 18.24 10.79l-2.87 47.66 40.98 9.6 4.64-10.95 11.34 2.66 15.17-35.89c10.65-0.86 21.28-3.03 31.65-6.55l3.71 4.18zm-30.21-565.44c-10.21 0-20.32-2.35-29.49-6.87 5.62-27.39 31.07-48.22 61.89-48.99-1.36 5.01-2.11 10.28-2.19 15.71q0 0.04 0 0.09 0 0 0 0.01 0 0.03 0 0.08 0 0 0 0.02 0 0.03 0 0.07 0 0.01 0 0.03 0 0.03 0 0.06 0 0.02 0 0.04 0 0.03 0 0.06 0 0.01 0 0.04 0 0.02 0 0.05 0 0.03 0 0.05 0 0.02 0 0.05 0 0.03 0 0.05 0 0.02 0 0.05 0 0.04 0 0.08 0 0.01 0 0.02v28.88q-3.67 3.54-7.95 6.57c-7.26 2.59-14.79 3.85-22.26 3.85z"/>
		</clipPath>
		<linearGradient id="g1" x2="1" gradientUnits="userSpaceOnUse" gradientTransform="matrix(0,1236.9,-1715.676,0,858,185.45)">
			<stop offset="0" stop-color="#d4f3fe"/>
			<stop offset=".031" stop-color="#d4f3fe"/>
			<stop offset=".063" stop-color="#d3f3fe"/>
			<stop offset=".094" stop-color="#d2f3fe"/>
			<stop offset=".125" stop-color="#d1f3fe"/>
			<stop offset=".156" stop-color="#d1f3fe"/>
			<stop offset=".188" stop-color="#d0f2fe"/>
			<stop offset=".219" stop-color="#cff2fe"/>
			<stop offset=".25" stop-color="#cef2fe"/>
			<stop offset=".281" stop-color="#cdf2fe"/>
			<stop offset=".313" stop-color="#ccf2fe"/>
			<stop offset=".344" stop-color="#ccf1fe"/>
			<stop offset=".375" stop-color="#cbf1fe"/>
			<stop offset=".406" stop-color="#caf1fe"/>
			<stop offset=".438" stop-color="#c9f1fe"/>
			<stop offset=".469" stop-color="#c8f1fe"/>
			<stop offset=".5" stop-color="#c7f0fe"/>
			<stop offset=".531" stop-color="#c6f0fe"/>
			<stop offset=".563" stop-color="#c5f0fe"/>
			<stop offset=".594" stop-color="#c4f0ff"/>
			<stop offset=".625" stop-color="#c4f0ff"/>
			<stop offset=".656" stop-color="#c3efff"/>
			<stop offset=".688" stop-color="#c2efff"/>
			<stop offset=".719" stop-color="#c1efff"/>
			<stop offset=".75" stop-color="#c0efff"/>
			<stop offset=".781" stop-color="#bfeeff"/>
			<stop offset=".813" stop-color="#beeeff"/>
			<stop offset=".844" stop-color="#bdeeff"/>
			<stop offset=".875" stop-color="#bceeff"/>
			<stop offset=".891" stop-color="#bbeeff"/>
			<stop offset=".906" stop-color="#bbedff"/>
			<stop offset=".922" stop-color="#baedff"/>
			<stop offset=".938" stop-color="#baedff"/>
			<stop offset=".953" stop-color="#b9edff"/>
			<stop offset=".969" stop-color="#b9edff"/>
			<stop offset=".984" stop-color="#b8edff"/>
			<stop offset="1" stop-color="#b8edff"/>
		</linearGradient>
		<clipPath clipPathUnits="userSpaceOnUse" id="cp6">
			<path d="m0 1415h1716v77h-1716z"/>
		</clipPath>
		<clipPath clipPathUnits="userSpaceOnUse" id="cp7">
			<path d="m849.38 1491.35c-473.77 0-849.22-7.93-849.22-47.35 0-13.8 47.04-22.62 128.51-28.26 36.53 19.21 78.73 30.17 123.66 30.17h280.58q0.89 0.03 1.78 0.03 0.01 0 0.02 0 0.08 0 0.15 0 0.02 0 0.03 0 0.08 0 0.15 0h553.51q1.08 0 2.14-0.03h381.96l9.3 0.03q0.09 0 0.2 0 1.01 0 1.98-0.03h91.13c29.91 0 57.64-8.71 80.43-23.56 38.82 5.32 60.15 12.36 60.15 21.65 0 39.42-392.69 47.35-866.46 47.35z"/>
		</clipPath>
		<clipPath clipPathUnits="userSpaceOnUse" id="cp8">
			<path d="m849.38 1491.35c-473.77 0-849.22-7.93-849.22-47.35 0-13.8 47.04-22.62 128.51-28.26 36.53 19.21 78.73 30.17 123.66 30.17h280.58q0.89 0.03 1.78 0.03 0.01 0 0.02 0 0.08 0 0.15 0 0.02 0 0.03 0 0.08 0 0.15 0h553.51q1.08 0 2.14-0.03h381.96l9.3 0.03q0.09 0 0.2 0 1.01 0 1.98-0.03h91.13c29.91 0 57.64-8.71 80.43-23.56 38.82 5.32 60.15 12.36 60.15 21.65 0 39.42-392.69 47.35-866.46 47.35z"/>
		</clipPath>
		<linearGradient id="g2" x2="1" gradientUnits="userSpaceOnUse" gradientTransform="matrix(0,75.61,-1715.605,0,858,1415.74)">
			<stop offset="0" stop-color="#a9d0de"/>
			<stop offset=".25" stop-color="#a9d0de"/>
			<stop offset=".5" stop-color="#a8cfde"/>
			<stop offset=".75" stop-color="#a7cfde"/>
			<stop offset="1" stop-color="#a6cfde"/>
		</linearGradient>
		<clipPath clipPathUnits="userSpaceOnUse" id="cp9">
			<path d="m128 1406h1528v40h-1528z"/>
		</clipPath>
		<clipPath clipPathUnits="userSpaceOnUse" id="cp10">
			<path d="m1655.69 1422.35c-31.96-4.39-75.78-7.61-129.29-9.98-1.48 18.23-19.72 32.73-42.27 33.54h91.13c29.91 0 57.64-8.71 80.43-23.56zm-553.7 22.16q-5.49 1.2-11.3 1.4h381.96zm-625.47-38.01c-19.66 0.14-38.91 0.31-57.68 0.5q-1.73 9.59-3.87 19.6c0 0-110.08-2.28-129.75-2.28-1.72 0-2.74 0.02-2.96 0.06q-0.02 0-0.04 0c-1.02 0-0.27-6.57 2-15.15-60.16 1.46-112.65 3.55-155.55 6.51 36.53 19.21 78.73 30.17 123.66 30.17h280.58c-25.57-0.85-47.28-16.91-56.39-39.41z"/>
		</clipPath>
		<clipPath clipPathUnits="userSpaceOnUse" id="cp11">
			<path d="m1655.69 1422.35c-31.96-4.39-75.78-7.61-129.29-9.98-1.48 18.23-19.72 32.73-42.27 33.54h91.13c29.91 0 57.64-8.71 80.43-23.56zm-553.7 22.16q-5.49 1.2-11.3 1.4h381.96zm-625.47-38.01c-19.66 0.14-38.91 0.31-57.68 0.5q-1.73 9.59-3.87 19.6c0 0-110.08-2.28-129.75-2.28-1.72 0-2.74 0.02-2.96 0.06q-0.02 0-0.04 0c-1.02 0-0.27-6.57 2-15.15-60.16 1.46-112.65 3.55-155.55 6.51 36.53 19.21 78.73 30.17 123.66 30.17h280.58c-25.57-0.85-47.28-16.91-56.39-39.41z"/>
		</clipPath>
		<linearGradient id="g3" x2="1" gradientUnits="userSpaceOnUse" gradientTransform="matrix(0,39.41,-1527.017,0,858,1406.5)">
			<stop offset="0" stop-color="#a2cede"/>
			<stop offset=".5" stop-color="#a1cede"/>
			<stop offset="1" stop-color="#a1cede"/>
		</linearGradient>
		<clipPath clipPathUnits="userSpaceOnUse" id="cp12">
			<path d="m1188 795h22v13h-22z"/>
		</clipPath>
		<clipPath clipPathUnits="userSpaceOnUse" id="cp13">
			<path d="m1188.06 807.91c6.57-4.97 13.64-9.29 21.13-12.88-7.49 3.59-14.56 7.91-21.13 12.88z"/>
		</clipPath>
		<clipPath clipPathUnits="userSpaceOnUse" id="cp14">
			<path d="m1188.06 807.91c6.57-4.97 13.64-9.29 21.13-12.88-7.49 3.59-14.56 7.91-21.13 12.88z"/>
		</clipPath>
		<linearGradient id="g4" x2="1" gradientUnits="userSpaceOnUse" gradientTransform="matrix(0,12.88,-21.135,0,858,795.03)">
			<stop offset="0" stop-color="#c0d5dd"/>
			<stop offset=".5" stop-color="#c0d5dd"/>
			<stop offset="1" stop-color="#bfd5dd"/>
		</linearGradient>
		<clipPath clipPathUnits="userSpaceOnUse" id="cp15">
			<path d="m1151 807h38v45h-38z"/>
		</clipPath>
		<clipPath clipPathUnits="userSpaceOnUse" id="cp16">
			<path d="m1151.67 851.86c8.59-17.34 21.11-32.38 36.39-43.95-15.28 11.57-27.8 26.61-36.39 43.95z"/>
		</clipPath>
		<clipPath clipPathUnits="userSpaceOnUse" id="cp17">
			<path d="m1151.67 851.86c8.59-17.34 21.11-32.38 36.39-43.95-15.28 11.57-27.8 26.61-36.39 43.95z"/>
		</clipPath>
		<linearGradient id="g5" x2="1" gradientUnits="userSpaceOnUse" gradientTransform="matrix(0,43.95,-36.387,0,858,807.91)">
			<stop offset="0" stop-color="#afd1dd"/>
			<stop offset=".5" stop-color="#aed1dd"/>
			<stop offset="1" stop-color="#aed1dd"/>
		</linearGradient>
		<clipPath clipPathUnits="userSpaceOnUse" id="cp18">
			<path d="m1464 1020h22v1h-22z"/>
		</clipPath>
		<clipPath clipPathUnits="userSpaceOnUse" id="cp19">
			<path d="m1485.91 1020.44l-21.26-0.08z"/>
		</clipPath>
		<clipPath clipPathUnits="userSpaceOnUse" id="cp20">
			<path d="m1485.91 1020.44l-21.26-0.08z"/>
		</clipPath>
		<linearGradient id="g6" x2="1" gradientUnits="userSpaceOnUse" gradientTransform="matrix(0,.08,-20.735,0,858,1020.36)">
			<stop offset="0" stop-color="#d5cdb6"/>
			<stop offset=".5" stop-color="#d5cdb6"/>
			<stop offset="1" stop-color="#d5cdb6"/>
		</linearGradient>
		<clipPath clipPathUnits="userSpaceOnUse" id="cp21">
			<path d="m1090 1444h12v2h-12z"/>
		</clipPath>
		<clipPath clipPathUnits="userSpaceOnUse" id="cp22">
			<path d="m1090.69 1445.91q5.81-0.2 11.3-1.4-5.49 1.2-11.3 1.4z"/>
		</clipPath>
		<clipPath clipPathUnits="userSpaceOnUse" id="cp23">
			<path d="m1090.69 1445.91q5.81-0.2 11.3-1.4-5.49 1.2-11.3 1.4z"/>
		</clipPath>
		<linearGradient id="g7" x2="1" gradientUnits="userSpaceOnUse" gradientTransform="matrix(0,1.4,-11.31,0,858,1444.51)">
			<stop offset="0" stop-color="#8eb4c2"/>
			<stop offset=".5" stop-color="#8eb4c2"/>
			<stop offset="1" stop-color="#8eb4c2"/>
		</linearGradient>
		<clipPath clipPathUnits="userSpaceOnUse" id="cp24">
			<path d="m471 1382h1v3h-1z"/>
		</clipPath>
		<clipPath clipPathUnits="userSpaceOnUse" id="cp25">
			<path d="m471.95 1384.61v-0.01zm0-0.19v-0.01zm-0.02-0.55q0 0 0-0.02 0 0.02 0 0.02zm0-0.08q0-0.01 0-0.03 0 0.02 0 0.03zm0-0.09q0-0.02 0-0.04 0 0.02 0 0.04zm0-0.1q0-0.01 0-0.04 0 0.02 0 0.04zm0-0.09q0-0.03 0-0.05 0 0.02 0 0.05zm0-0.1q0-0.02 0-0.05 0 0.03 0 0.05zm0-0.1q0-0.02 0-0.05 0 0.03 0 0.05zm0-0.09q0-0.03 0-0.06 0 0.03 0 0.06zm0-0.1q0-0.03 0-0.07 0 0.04 0 0.07zm0-0.1q0-0.03 0-0.07 0 0.04 0 0.07zm0-0.1q0-0.04 0-0.1 0 0.05 0 0.1z"/>
		</clipPath>
		<clipPath clipPathUnits="userSpaceOnUse" id="cp26">
			<path d="m471.95 1384.61v-0.01zm0-0.19v-0.01zm-0.02-0.55q0 0 0-0.02 0 0.02 0 0.02zm0-0.08q0-0.01 0-0.03 0 0.02 0 0.03zm0-0.09q0-0.02 0-0.04 0 0.02 0 0.04zm0-0.1q0-0.01 0-0.04 0 0.02 0 0.04zm0-0.09q0-0.03 0-0.05 0 0.02 0 0.05zm0-0.1q0-0.02 0-0.05 0 0.03 0 0.05zm0-0.1q0-0.02 0-0.05 0 0.03 0 0.05zm0-0.09q0-0.03 0-0.06 0 0.03 0 0.06zm0-0.1q0-0.03 0-0.07 0 0.04 0 0.07zm0-0.1q0-0.03 0-0.07 0 0.04 0 0.07zm0-0.1q0-0.04 0-0.1 0 0.05 0 0.1z"/>
		</clipPath>
		<linearGradient id="g8" x2="1" gradientUnits="userSpaceOnUse" gradientTransform="matrix(0,1.79,-0.023,0,858,1382.82)">
			<stop offset="0" stop-color="#c0efff"/>
			<stop offset=".5" stop-color="#c0efff"/>
			<stop offset="1" stop-color="#c0efff"/>
		</linearGradient>
		<clipPath clipPathUnits="userSpaceOnUse" id="cp27">
			<path d="m471 201h1v1h-1z"/>
		</clipPath>
		<clipPath clipPathUnits="userSpaceOnUse" id="cp28">
			<path d="m471.93 201.99q0-0.04 0-0.08 0 0.04 0 0.08zm0-0.13q0-0.02 0-0.05 0 0.03 0 0.05zm0-0.1q0-0.02 0-0.05 0 0.03 0 0.05zm0-0.1q0-0.03 0-0.04 0 0.01 0 0.04zm0-0.1q0-0.02 0-0.04 0 0.02 0 0.04zm0-0.1q0-0.01 0-0.03 0 0.02 0 0.03zm0-0.1q0-0.02 0-0.02 0 0 0 0.02zm0-0.1q0-0.01 0-0.01 0 0 0 0.01z"/>
		</clipPath>
		<clipPath clipPathUnits="userSpaceOnUse" id="cp29">
			<path d="m471.93 201.99q0-0.04 0-0.08 0 0.04 0 0.08zm0-0.13q0-0.02 0-0.05 0 0.03 0 0.05zm0-0.1q0-0.02 0-0.05 0 0.03 0 0.05zm0-0.1q0-0.03 0-0.04 0 0.01 0 0.04zm0-0.1q0-0.02 0-0.04 0 0.02 0 0.04zm0-0.1q0-0.01 0-0.03 0 0.02 0 0.03zm0-0.1q0-0.02 0-0.02 0 0 0 0.02zm0-0.1q0-0.01 0-0.01 0 0 0 0.01z"/>
		</clipPath>
		<linearGradient id="g9" x2="1" gradientUnits="userSpaceOnUse" gradientTransform="matrix(0,.83,-0.004,0,858,201.16)">
			<stop offset="0" stop-color="#d8f4fe"/>
			<stop offset=".5" stop-color="#d8f4fe"/>
			<stop offset="1" stop-color="#d8f4fe"/>
		</linearGradient>
	</defs>
	<style>
		.s0 { fill: url(#g1) } 
		.s1 { fill: url(#g2) } 
		.s2 { fill: url(#g3) } 
		.s3 { fill: #b7d7f9 } 
		.s4 { fill: url(#g4) } 
		.s5 { fill: url(#g5) } 
		.s6 { fill: #a1bcd9 } 
		.s7 { fill: #febf4b } 
		.s8 { fill: #133160 } 
		.s9 { fill: url(#g6) } 
		.s10 { fill: #f4a93a } 
		.s11 { fill: #ffffff } 
		.s12 { fill: #86b4d1 } 
		.s13 { fill: #aad3e8 } 
		.s14 { fill: #1d3b77 } 
		.s15 { fill: url(#g7) } 
		.s16 { fill: #dda745 } 
		.s17 { fill: #d59436 } 
		.s18 { fill: #1e376a } 
		.s19 { fill: url(#g8) } 
		.s20 { fill: #bedbfa } 
		.s21 { fill: url(#g9) } 
		.s22 { fill: #344f85 } 
		.s23 { fill: #131025 } 
		.s24 { fill: #eaa87a } 
		.s25 { fill: #fcc596 } 
		.s26 { fill: #175699 } 
		.s27 { fill: #ed65b2 } 
		.s28 { fill: #c01b7d } 
		.s29 { fill: #9bd4df } 
		.s30 { fill: #f9ae81 } 
		.s31 { fill: #222146 } 
		.s32 { fill: #213267 } 
		.s33 { fill: #14284e } 
		.s34 { fill: #e9c6ce } 
		.s35 { fill: #c7d3e2 } 
		.s36 { fill: #d4dce7 } 
		.s37 { fill: #b3c1d2 } 
		.s38 { fill: #95a9bb } 
		.s39 { fill: #a2b2cb } 
		.s40 { fill: #1c183c } 
		.s41 { fill: #232147 } 
		.s42 { fill: #314876 } 
		.s43 { fill: #6ba3d8 } 
		.s44 { fill: #4a8ebc } 
		.s45 { fill: #dfedf7 } 
		.s46 { fill: #5388c6 } 
		.s47 { fill: #3d62ad } 
		.s48 { fill: #1f335f } 
		.s49 { fill: #e7f2f7 } 
		.s50 { fill: #75bdfb } 
		.s51 { fill: #4a6292 } 
	</style>
	<g id="Clip-Path" clip-path="url(#cp1)">
		<g>
			<g id="Clip-Path" clip-path="url(#cp2)">
				<g>
				</g>
			</g>
		</g>
	</g>
	<g id="Clip-Path" clip-path="url(#cp3)">
		<g>
			<g id="Clip-Path" clip-path="url(#cp4)">
				<g>
					<g id="Clip-Path" clip-path="url(#cp5)">
						<g>
							<path class="s0" d="m1715.8 185.4h-1715.6v1237h1715.6z"/>
						</g>
					</g>
				</g>
			</g>
		</g>
	</g>
	<g id="Clip-Path" clip-path="url(#cp6)">
		<g>
			<g id="Clip-Path" clip-path="url(#cp7)">
				<g>
					<g id="Clip-Path" clip-path="url(#cp8)">
						<g>
							<path class="s1" d="m1715.8 1415.7h-1715.6v75.7h1715.6z"/>
						</g>
					</g>
				</g>
			</g>
		</g>
	</g>
	<g id="Clip-Path" clip-path="url(#cp9)">
		<g>
			<g id="Clip-Path" clip-path="url(#cp10)">
				<g>
					<g id="Clip-Path" clip-path="url(#cp11)">
						<g>
							<path class="s2" d="m1655.7 1406.5h-1527v39.4h1527z"/>
						</g>
					</g>
				</g>
			</g>
		</g>
	</g>
	<path class="s3" d="m1263.4 711c-108.5-0.6-197.3 86.5-198 194.3l-0.9 115.9h73.6l0.8-115.5c0.5-68 56.1-123.1 124-122.7 67.8 0.4 122.7 56.1 122.2 124.2l-0.8 114h73.5l0.8-113.6c0.8-107.8-86.8-196-195.2-196.6z"/>
	<g id="Clip-Path" clip-path="url(#cp12)">
		<g>
			<g id="Clip-Path" clip-path="url(#cp13)">
				<g>
					<g id="Clip-Path" clip-path="url(#cp14)">
						<g>
							<path class="s4" d="m1209.2 795h-21.1v12.9h21.1z"/>
						</g>
					</g>
				</g>
			</g>
		</g>
	</g>
	<g id="Clip-Path" clip-path="url(#cp15)">
		<g>
			<g id="Clip-Path" clip-path="url(#cp16)">
				<g>
					<g id="Clip-Path" clip-path="url(#cp17)">
						<g>
							<path class="s5" d="m1188.1 807.9h-36.4v44h36.4z"/>
						</g>
					</g>
				</g>
			</g>
		</g>
	</g>
	<path class="s6" d="m1396.7 1018.9h-12.4l0.8-111.7q0-0.4 0-0.8c0-7.7-0.7-15.2-2.1-22.6-10.5-57-60.2-100.4-120.1-100.8q-0.4 0-0.8 0c-18.9 0-36.9 4.3-52.9 12-7.5 3.6-14.6 7.9-21.1 12.9-15.3 11.6-27.8 26.6-36.4 44v-26.5c24.7-34.1 65-56.3 110.3-56.3q0.4 0 0.8 0c74.9 0.4 135.3 61.3 134.8 135.7z"/>
	<path class="s7" d="m1485.9 1020.4l-28.1-0.1v-1.4h-73.5l-0.1 1.2-246.1-1v-0.2h-104.7c-22.6 1.6-40.4 16.8-40.5 35.6l-3.4 353.7c-0.1 19.8 19.5 36 43.9 36.1l448.5 1.6c24.5 0.1 44.4-15.9 44.6-35.7l3.3-353.7c0.2-19.8-19.5-36-43.9-36.1z"/>
	<path class="s8" d="m1302.8 1207.2c0.3-26.9-19.8-48.7-44.8-48.8-25.1-0.1-45.6 21.6-45.8 48.5-0.2 16.6 7.5 31.4 19.4 40.2l-14.3 67.1 78.4 0.3-13-67.2c12-8.7 20-23.4 20.1-40.1z"/>
	<g id="Clip-Path" clip-path="url(#cp18)">
		<g>
			<g id="Clip-Path" clip-path="url(#cp19)">
				<g>
					<g id="Clip-Path" clip-path="url(#cp20)">
						<g>
							<path class="s9" d="m1485.9 1020.4h-21.3 21.3z"/>
						</g>
					</g>
				</g>
			</g>
		</g>
	</g>
	<path class="s10" d="m1482.1 1445.9q-0.1 0-0.2 0l-379.9-1.4c15.6-3.4 29-12.5 37.9-25 97.6-14.7 210.7-50 260-133.4 62.3-105.4 68.1-207.6 64.7-265.7h21.3c24.3 0.1 43.9 16.2 43.9 35.8q0 0.2 0 0.3l-3.3 353.7q0 1.1-0.1 2.2c-1.5 18.2-19.7 32.7-42.3 33.5q-0.9 0-2 0z"/>
	<path class="s11" d="m1086 1140.6c0 25.8-9.2 46.7-20.6 46.7-11.3 0-20.6-20.9-20.6-46.7 0-25.8 9.3-46.7 20.6-46.7 11.4 0 20.6 20.9 20.6 46.7z"/>
	<path fill-rule="evenodd" class="s12" d="m616.4 195.3l-9.6 41-46-2.8c-6.7 13.7-15.8 26.2-27.1 37.1l17.5 43.2-35.7 22.2-31.3-35.3c-14.5 4.9-29.5 7.2-44.3 6.9l-18.5 43.8-41-9.6 2.9-47.7c-13.2-6.4-25.5-15.1-36.1-25.9l-44.2 18-22.2-35.8 35.5-31.5c-5-14.5-7.5-29.4-7.5-44.2l-43.4-18.4 9.6-41 46.5 2.8c6.5-13.7 15.3-26.5 26.4-37.5l-17.3-42.8 35.7-22.2 30.3 34.2c15-5.4 30.7-8 46.2-7.9l17.6-41.7 41 9.6-2.7 45c14.1 6.7 27.2 16 38.4 27.6l41.7-17 22.2 35.8-33.9 30c5.3 15.2 7.7 30.9 7.3 46.4zm-118.3-55.6c-19.3-31.3-60.3-40.8-91.5-21.5-31.2 19.4-40.8 60.4-21.5 91.6 19.4 31.2 60.4 40.8 91.6 21.4 31.2-19.3 40.8-60.3 21.4-91.5z"/>
	<path fill-rule="evenodd" class="s13" d="m600.5 203.6l-9.6 41-46.1-2.8c-6.7 13.7-15.8 26.2-27.1 37.1l17.6 43.2-35.8 22.2-31.3-35.3c-14.5 4.9-29.4 7.2-44.3 6.9l-18.5 43.8-41-9.6 2.9-47.7c-13.2-6.4-25.4-15.1-36.1-25.9l-44.2 18-22.2-35.8 35.6-31.5c-5.1-14.4-7.6-29.4-7.6-44.2l-43.4-18.4 9.6-41 46.5 2.8c6.5-13.7 15.3-26.5 26.4-37.5l-17.3-42.8 35.7-22.2 30.3 34.2c15-5.5 30.7-8 46.2-7.9l17.6-41.7 41 9.6-2.7 45c14.1 6.7 27.2 16 38.4 27.6l41.7-17 22.2 35.8-33.8 30.1c5.2 15.1 7.6 30.8 7.3 46.3zm-118.4-55.6c-19.3-31.2-60.3-40.9-91.5-21.5-31.2 19.4-40.8 60.4-21.4 91.6 19.3 31.2 60.3 40.8 91.5 21.4 31.2-19.3 40.8-60.3 21.4-91.5z"/>
	<path class="s12" d="m259 123.6l13.8 0.8 2.2-9.1z"/>
	<path class="s12" d="m444.4 8.5l16-8.3-4.6 11z"/>
	<path class="s12" d="m350.3 23.9l16-8.3-15 9.4z"/>
	<path class="s12" d="m405.4 359.7l16-8.3-11.3-2.6z"/>
	<path class="s12" d="m590.9 244.6l15.9-8.3-13.8-0.8z"/>
	<path class="s12" d="m499.5 344.3l16-8.3-0.9-1.1z"/>
	<path class="s11" d="m1151.4 195.6c-3.3-31.9-30.2-56.7-62.8-56.7h-553.6c-14.6 0-28 5-38.7 13.4q-0.3 0.1-0.5 0.3-1.7 1.4-3.3 2.9-0.6 0.5-1.1 1-1.4 1.3-2.7 2.8-0.7 0.7-1.4 1.5-1.1 1.3-2.2 2.7-0.7 0.9-1.4 1.9-1 1.3-1.9 2.7-0.7 1.1-1.3 2.3-0.8 1.3-1.5 2.7-0.7 1.3-1.3 2.6-0.6 1.3-1.2 2.7-0.5 1.5-1.1 3-0.4 1.2-0.8 2.5c-0.4 1.2-0.6 2.3-0.9 3.4-0.2 0.8-0.4 1.6-0.6 2.5-0.2 1.3-0.4 2.6-0.6 4-0.1 0.6-0.2 1.3-0.3 2q-0.3 3.1-0.3 6.2v1180.8q0 3.2 0.3 6.2c0.1 0.7 0.2 1.4 0.3 2.1 0.2 1.3 0.4 2.6 0.6 4 0.2 0.8 0.4 1.6 0.6 2.4 0.3 1.1 0.5 2.3 0.9 3.4 0.2 0.8 0.5 1.7 0.8 2.6q0.6 1.5 1.1 2.9 0.6 1.4 1.2 2.7 0.6 1.3 1.3 2.6 0.7 1.4 1.5 2.7 0.6 1.2 1.3 2.3 0.9 1.4 1.9 2.7 0.7 1 1.4 1.9 1.1 1.4 2.2 2.8 0.7 0.7 1.4 1.4 1.3 1.5 2.7 2.9 0.5 0.5 1.1 0.9c1.1 1 2.2 2 3.3 2.9q0.2 0.2 0.5 0.4c10.7 8.3 24.1 13.3 38.7 13.3h553.6c34.8 0 63.1-28.2 63.1-63.1v-1180.8q0-3.3-0.3-6.4z"/>
	<path class="s3" d="m1088.6 1445.9h-553.6c-34.8 0-63.1-28.2-63.1-63.1v-1180.8c0-34.9 28.3-63.1 63.1-63.1h553.6c34.8 0 63.1 28.2 63.1 63.1v1180.8c0 34.9-28.3 63.1-63.1 63.1z"/>
	<path class="s14" d="m471.9 1267.3h679.8v-978.9h-679.8z"/>
	<path class="s8" d="m908.1 218.5h-192.6c-1 0-1.8-0.8-1.8-1.7v-4.3c0-1 0.8-1.8 1.8-1.8h192.6c1 0 1.8 0.8 1.8 1.8v4.3c0 0.9-0.8 1.7-1.8 1.7z"/>
	<path class="s8" d="m867.1 1355.6c0 30.6-24.7 55.4-55.3 55.4-30.6 0-55.4-24.8-55.4-55.4 0-30.5 24.8-55.3 55.4-55.3 30.6 0 55.3 24.8 55.3 55.3z"/>
	<g id="Clip-Path" clip-path="url(#cp21)">
		<g>
			<g id="Clip-Path" clip-path="url(#cp22)">
				<g>
					<g id="Clip-Path" clip-path="url(#cp23)">
						<g>
							<path class="s15" d="m1102 1444.5h-11.3v1.4h11.3z"/>
						</g>
					</g>
				</g>
			</g>
		</g>
	</g>
	<path class="s16" d="m1139.9 1419.5c7.4-10.3 11.8-23 11.8-36.7v-363.6 363.6c0 13.7-4.4 26.4-11.8 36.7z"/>
	<path class="s17" d="m1102 1444.5c15.6-3.4 29-12.5 37.9-25-8.9 12.5-22.3 21.6-37.9 25z"/>
	<path class="s6" d="m1088.6 1445.9h-33.8c23.4-9.3 39.9-32.1 39.9-58.8v-119.8h57v115.5c0 13.7-4.4 26.4-11.8 36.7-8.9 12.5-22.3 21.6-37.9 25q-5.5 1.2-11.3 1.4-1.1 0-2.1 0zm63.1-1157.5h-57v-90.7c0-26.7-16.5-49.5-39.9-58.8h33.8c34.8 0 63.1 28.2 63.1 63.1z"/>
	<path class="s18" d="m1151.7 1267.3h-57v-675.9h57zm0-886h-57v-92.9h57z"/>
	<g id="Clip-Path" clip-path="url(#cp24)">
		<g>
			<g id="Clip-Path" clip-path="url(#cp25)">
				<g>
					<g id="Clip-Path" clip-path="url(#cp26)">
						<g>
							<path class="s19" d="m471.9 1382.8v1.8z"/>
						</g>
					</g>
				</g>
			</g>
		</g>
	</g>
	<path class="s20" d="m527 1445.4c-30.5-3.9-54.2-29.5-55.1-60.8q0.1 0 0-0.1 0 0 0-0.1 0-0.3 0-0.5 0 0 0 0 0-0.1 0-0.1 0 0 0 0 0-0.1 0-0.1 0 0 0 0 0-0.1 0-0.1 0 0 0 0 0-0.1 0-0.1 0 0 0 0 0-0.1 0-0.1 0 0 0 0 0-0.1 0-0.1 0 0 0 0 0-0.1 0-0.1 0 0 0 0 0-0.1 0-0.1 0 0 0 0 0-0.1 0-0.1 0 0 0-0.1 0 0 0 0 0 0 0-0.1v-55.9c11.1-5.1 20.9-10.1 24.4-13.2 3.6-3.3-0.9-22.9-9.2-46.4h39.9z"/>
	<g id="Clip-Path" clip-path="url(#cp27)">
		<g>
			<g id="Clip-Path" clip-path="url(#cp28)">
				<g>
					<g id="Clip-Path" clip-path="url(#cp29)">
						<g>
							<path class="s21" d="m471.9 201.2v0.8z"/>
						</g>
					</g>
				</g>
			</g>
		</g>
	</g>
	<path class="s20" d="m527 288.4h-55.1v-86.4q0 0 0 0 0 0 0-0.1 0 0 0 0 0-0.1 0-0.1 0 0 0 0 0-0.1 0-0.1 0 0 0 0 0-0.1 0-0.1 0 0 0 0 0-0.1 0-0.1 0 0 0 0 0-0.1 0-0.1 0 0 0 0 0-0.1 0-0.1 0 0 0 0 0-0.1 0 0 0-0.1 0-0.1c0.4-31.8 24.3-57.8 55.1-61.7z"/>
	<path class="s22" d="m527 1267.3h-39.9c-4.2-12.3-9.5-25.6-15.2-38.2v-940.7h55.1v143.5c-16.3 6.5-34.9 13.4-55.1 19.9v483c16.7 13.6 35 26.5 55.1 38.3z"/>
	<path class="s23" d="m329.6 1045c0 0-15-7.9-26.3 22.6-11.4 30.5-11.9 78.1-7.7 94.3 0 0-33.1 36-5.9 59.6 0 0 37.4 39.7 39.9 49.9 0.9-2.4 16.9-31.5 42.8-33 26-1.6 89.8-69.3 55.7-79.9 0 0 2.6 11-9.1 8.3-11.6-2.6-4.4-43.1-4.5-57.4-0.2-14.3-8.8-49.6-33.7-64.6-24.8-15-53.4-14-51.2 0.2z"/>
	<path class="s24" d="m371.6 1139.4c0 0 6.7 19.3 9 22.8 0 0 3.6 9.3-6.9 35.6-10.5 26.3-37.1 11.6-41.4 4.4-4.3-7.1-13.7-20.9-5.1-34.5 0 0 11.8-8.5 5.6-27.1 0 0 37-7.4 38.8-1.2z"/>
	<path class="s25" d="m326.2 1135c0 0 18.1 19.4 33.2 16.9 16.4-2.6 29.1-21.8 33-35.9 3.9-14.1-2.5-42.4-12.3-52.5-9.7-10.1-45.8-16.8-55.9-3.7-10.1 13.1-16.9 60.1 2 75.2z"/>
	<path class="s26" d="m294.9 1396.9c0 0-43.1 25.6-45.5 38.5l47.5-16.8z"/>
	<path class="s11" d="m334.7 1162c0 0 33.5 14.8 49.7-2.1 0 0 70.4 80.6 30.6 266.7 0 0-130.1-2.7-132.7-2.2-2.7 0.5 5.6-40.4 21.2-51.7 15.6-11.2 105.4-63.4 30.9-207.7-0.5-1-0.4-1.6 0.3-3z"/>
	<path class="s27" d="m333.7 1161.6c0 0-12.9 1.3-29 7.2-12.3 7.8-27.8 21.7-22.9 40.4 7.7 29.9 20.2 99.6 7.5 128.1-9.8 22.1-21.7 38-39.5 67.8h38.8c30.9-25.4 61.4-54.8 80.7-94.7 38.4-79.5-35.6-148.8-35.6-148.8z"/>
	<path class="s28" d="m304.7 1168.8c-12.3 7.8-27.8 21.7-22.9 40.4 7.7 29.9 20.2 99.6 7.5 128.1-6.5 14.5-13.8 26.3-23.1 41.2 15.6-13 47.8-44.3 59.4-77.9 0 0-51.7-81.1-18-132.9q-1.4 0.5-2.9 1.1z"/>
	<path class="s29" d="m331.4 1161.5l29.7 24.1 4.8-17.2-23.8-6.5z"/>
	<path class="s29" d="m384.4 1159.9l-17.4 7.9 16.5 18.6c0 0 7.9-19.1 0.9-26.5z"/>
	<path class="s27" d="m415.8 1396.4c-0.6 3.1-1.1 6-1.4 8.7h26c-3-20.7-9.5-47.6-11.2-54.7 8.4-48.7 14-83 9.1-133.7 0 0-2.8-19.8-7.4-37.6-1.3-5.1-4.1-12.5-9.3-14.1-11.5-3.7-24.6-3.2-37.2-5.1 0 0 33.8 134.2 31.4 236.5z"/>
	<path class="s28" d="m439.1 1225.7c-8.4 25.9-19 50.4-19 50.4 4.8 4.1 10.7 14.5 16.6 26.8 3.2-24.9 4.6-48.5 2.4-77.2z"/>
	<path class="s30" d="m396.8 1350.8c0 0-34.6 16.5-38.6 15-10.6-3.7-10.7-19.2-8.3-25.8 0 0 3.4-3 5.7-0.8 2.4 2.1 10.5 2.4 8.3-1.7-0.9-1.8-3.1-2.3-3.2-4.1-0.2-2.5 0.6-4.9 3-4.8q0.5 0 1.2 0.1c5.1 0.7 7.4 3.5 12.7 8.2 5.3 4.7 14.1-3.1 14.1-3.1z"/>
	<path class="s27" d="m387.9 1361.1c-6.3 1.2-9.6-28.7-9.6-28.7 0 0 67.1-26.3 71.1-37.4 3.9-11-41.5-83.6-42.9-89.6-1-4.2-7.5-18.4 2-30.5 6-7.7 16.1-9.3 23.7-4.2 5.4 3.6 10.2 7.8 14.2 12.7 24.1 30.2 58.1 122.9 49.9 130.3-9.4 8.6-66.5 31-66.5 31 0 0-34.4 14.9-41.9 16.4z"/>
	<path class="s30" d="m325.6 1356.9c0 0 34.5 16.4 38.6 15 10.5-3.7 10.6-19.2 8.2-25.8 0 0-3.3-3-5.7-0.8-2.3 2.1-10.5 2.3-8.3-1.7 1-1.8 3.1-2.4 3.3-4.1 0.2-2.5-0.6-4.9-3-4.8q-0.6 0-1.2 0.1c-5.1 0.7-7.4 3.5-12.7 8.2-5.3 4.7-14.1-3.1-14.1-3.1z"/>
	<path class="s27" d="m334.5 1367.2c6.2 1.2 9.6-28.8 9.6-28.8 0 0-67.2-26.2-71.1-37.3-3.9-11 41.5-83.6 42.9-89.6 1-4.2 7.5-18.4-2-30.5-6-7.7-16.1-9.3-23.8-4.2-5.3 3.6-10.2 7.8-14.1 12.7-24.2 30.2-58.1 122.9-49.9 130.3 9.4 8.5 66.5 31 66.5 31 0 0 34.3 14.9 41.9 16.4z"/>
	<path class="s31" d="m272.4 1441.9c0 0-2.4 15.5 16.1 20.4 18.5 4.9 31.7 8.2 35-1.8 3.2-10 6.1-15.8 0-17.3-6.2-1.4-51.1-1.3-51.1-1.3z"/>
	<path class="s32" d="m366.7 1419.9c0 0 104.9-69.8 130.5-69.8 25.6 0 59.4 20.8 48.5 46.3-11 25.5-75 45.8-106.1 51.8-31 6.1-70.9-19.1-72.9-28.3z"/>
	<path class="s33" d="m502.2 1350.3c12.6 8.5 20.4 21.3 14.3 35.5-11 25.6-75 45.8-106.1 51.9-7.4 1.4-15.3 1.1-23.1-0.4 14.8 7.9 34.9 14.3 52.3 10.9 31.1-6 95.1-26.3 106.1-51.8 10.2-23.9-18.7-43.7-43.5-46.1z"/>
	<path class="s32" d="m375.7 1426c0 0-110.6-74.9-135.3-84.1-24.7-9.1-57.6 8.2-53.9 32.4 3.6 24.3 31.1 45.6 64.9 60.8 33.8 15.2 113.3 18.2 113.3 18.2z"/>
	<path class="s33" d="m240.4 1341.9c-24.7-9.1-57.6 8.2-53.9 32.4q0.1 0.5 0.2 1.1c11.1-8.9 28.3-12.6 42.7-7.2 24.7 9.1 135.3 84 135.3 84l-0.4 1.1q0.4 0 0.4 0l11-27.3c0 0-110.6-74.9-135.3-84.1z"/>
	<path class="s31" d="m395.9 1456.3c0 0 11.9 15.6 29.2 7.5 17.4-8.1 34.3-18.1 22.6-24.7-11.6-6.7-40.9 0.9-40.9 0.9 0 0-7.7 5.7-10.9 16.3z"/>
	<path class="s34" d="m364.7 1453.3c0 0 25.9 5.8 35.8 7.5 0 0 14.5-17.4 7.4-21.2-5.8-3.3-32.2-13.6-32.2-13.6z"/>
	<path class="s35" d="m455.6 1391.3h-170.3l-10.8-106.4c-0.4-4.7 3.3-8.8 8-8.8h176.4c4.7 0 8.3 4 8 8.7z"/>
	<path class="s36" d="m441.3 1329.4h-13.6c-0.8 0-1.6-0.8-1.6-1.6v-25.6c0-0.9 0.8-1.6 1.6-1.6h13.6c0.9 0 1.6 0.7 1.6 1.6v25.6c0 0.8-0.7 1.6-1.6 1.6z"/>
	<path class="s37" d="m459.5 1402.8h-178.2c-1.7 0-3.1-1.4-3.1-3.1v-7.2c0-1.7 1.4-3.1 3.1-3.1h178.2c1.7 0 3.1 1.4 3.1 3.1v7.2c0 1.7-1.4 3.1-3.1 3.1z"/>
	<path class="s38" d="m278.2 1393.6v5c0 2.3 1.9 4.2 4.2 4.2h70.9c0.8-0.8 1.3-1.9 1.3-3.2v-7c0-1.3-0.5-2.4-1.3-3.2h-70.9c-2.3 0-4.2 1.9-4.2 4.2z"/>
	<path class="s39" d="m397.7 1280.3l-112.9-1.3c-4.3 0-6.1 1.7-5.8 6.1l10.1 102.3 9.6-0.2c-0.2-30.1 11.5-89.7 99-106.9z"/>
	<path class="s40" d="m309.3 1186.1c0 0-14.5 5.6-22.7-5.7-8.3-11.3 5.5-18 5.5-18 0 0-8.9 11.3 4.2 12.8 13 1.4 13.1-20.7 8.5-33-13.4-35.3-5.8-58.5 0.4-71.2 6.1-12.6 17-21.8 17-21.8l7.4-4.2 5.3 12.8c0 0-9.4 14.5-14.2 27.9-4.7 13.4-6.7 30.6 4.5 52.8 11.2 22.2 14.1 44-15.9 47.6z"/>
	<path class="s41" d="m334.9 1057.8l-5.3-12.8c0 0-15-7.9-26.3 22.6-3.9 10.5-5.9 23.1-6.7 35.7 5.1 19 19.7 40.9 27.7 59.5 10 23.5-20.6 17.2-20.6 17.2 0 0 10.2 17.4 25.5 4 16.8-14.6 2.1-39-4.4-51.7-6.4-12.8-5.4-36.9 0.7-50.6 6.2-13.6 9.4-23.9 9.4-23.9z"/>
	<path class="s40" d="m334.9 1057.8c0 0 34.1-9.1 51.4 32.8 17.3 41.8-7.3 61-3 73.9 4.4 12.9 16 14.7 26 1.5 0 0-12.3 8-14.1-1.1-1.9-9 18.5-22.2 16.6-56.6-0.7-12.2-2.7-22.6-4.9-31-5.3-12.5-13.7-25-26.1-32.5-24.8-15-53.4-14-51.2 0.2z"/>
	<path class="s18" d="m597.1 1007.2c-25.5-10-48.8-21.5-70.1-34.1v-541.2c40.6-16.1 67-29.7 67-29.7 0 0 14.7 7.4 39.2 17.7q7.3 3.1 15.7 6.4 6.4 2.6 13.2 5.2 9.2 3.5 19.3 7.2c8.4 3 17.2 6.1 26.4 9q5.5 1.8 11.2 3.6 2.8 0.9 5.7 1.8c13.4 4 27.4 7.9 41.8 11.5q6.2 1.5 12.5 2.9 6.2 1.4 12.5 2.7c8.5 1.7 17 3.3 25.6 4.7q6.4 1 12.9 1.9c17.2 2.4 34.5 3.9 51.6 4.2 0 0 0.9 6.1 1.8 17 0.3 4.1 0.6 8.9 0.9 14.2 0.6 12.6 1.1 28.5 0.6 46.8q-0.1 4.1-0.3 8.4-0.3 7.8-0.8 16.1 0 0.5-0.1 1.1c-0.5 8.5-1.3 17.4-2.2 26.7-2.1 19.4-5.3 40.3-9.9 61.9-2.1 9.9-4.5 19.9-7.2 30.1q-2.9 10.8-6.4 21.8-3.5 11-7.5 22-2 5.5-4.2 11-4.4 11.1-9.4 22.2-2.5 5.5-5.2 11c-5.3 11.1-11.1 22.1-17.6 32.9q-6.4 10.9-13.6 21.6c-9.5 14.3-20.2 28.2-32 41.8-11.8 13.5-24.7 26.6-39 39.2-10.6 9.3-22 18.4-34.2 27.1-28.4 20.2-60.9 38.2-98.2 53.3z"/>
	<path class="s42" d="m527 973.1c-20.1-11.8-38.4-24.7-55.1-38.3v-483c20.2-6.6 38.8-13.4 55.1-19.9z"/>
	<path class="s43" d="m857.2 478c-131-2.9-275.4-75.8-275.4-75.8 0 0-143.7 74.4-274.7 78.6 0 0-50.1 374 277.7 502.7 326.4-132.1 272.4-505.5 272.4-505.5z"/>
	<path class="s44" d="m857.2 478c-131-2.9-275.4-75.8-275.4-75.8 0 0 129 82.4 260 85.2 0 0 67.3 326.8-257 496.1 326.4-132.1 272.4-505.5 272.4-505.5z"/>
	<path class="s45" d="m826.1 498.4c-116.1-2.6-244.2-68.6-244.2-68.6 0 0-127.3 67.4-243.5 71.1 0 0-44.3 338.5 246.2 455 289.4-119.5 241.5-457.5 241.5-457.5z"/>
	<path class="s46" d="m806.4 510c-106.7-2.4-224.4-64.6-224.4-64.6 0 0-117 63.4-223.7 66.9 0 0-40.8 318.4 226.3 428 265.8-112.4 221.8-430.3 221.8-430.3z"/>
	<path class="s47" d="m584.3 464l2.4 457.6c245.9-103.9 205.2-397.9 205.2-397.9-98.7-2.3-207.6-59.7-207.6-59.7z"/>
	<path fill-rule="evenodd" class="s45" d="m654.8 712.7l-0.4 47.9c0 5.4-5.4 9.7-12 9.7l-60.5-0.3-60.6-0.2q-1.4 0-2.6-0.3-0.4 0-0.8-0.2-0.9-0.2-1.7-0.5-0.4-0.1-0.7-0.3-0.8-0.4-1.5-0.8-0.3-0.2-0.6-0.4-0.7-0.6-1.4-1.2l-0.2-0.3c-1.5-1.6-2.3-3.6-2.3-5.7l0.9-95.5c0-5 4.8-9.2 10.9-9.6h8.4l0.2-30.6c0.2-29.1 24.2-52.7 53.5-52.5 29.2 0.2 52.9 24 52.7 53.1l-0.2 30.4h1.8 5.7c1.7 0 3.3 0.3 4.7 0.8q1.1 0.4 2 0.9c3.2 1.8 5.2 4.7 5.2 8.1zm-95.2-111.7q-2.2 2.2-4 4.9c-3.7 5.3-5.8 11.7-5.9 18.6l-0.2 30.6 66.5 0.2v-0.3l0.2-30.2c0.1-18.3-14.7-33.4-33-33.5-6.9 0-13.3 2.1-18.6 5.6q-2.7 1.8-5 4.1zm28.9 115.6c3.3-2.3 5.4-6.3 5.5-10.8 0-7.2-5.4-13.1-12.1-13.2-6.8 0-12.3 5.9-12.4 13.1 0 4.5 2 8.5 5.2 10.9l-3.8 18.1 21.2 0.1z"/>
	<path class="s18" d="m1094.7 591.4h-87.2c-11.9 0-21.6-10.6-21.6-23.7v-162.7c0-13.1 9.7-23.7 21.6-23.7h87.2z"/>
	<path class="s48" d="m1094.7 591.4h57v-210.1h-57z"/>
	<path class="s49" d="m1418.1 561.7h-411.9c-11.2 0-20.3-9.1-20.3-20.3v-139.7c0-11.3 9.1-20.4 20.3-20.4h411.9c11.3 0 20.4 9.1 20.4 20.4v139.7c0 11.2-9.1 20.3-20.4 20.3z"/>
	<path class="s50" d="m1128.2 471.5c0 28.5-23 51.5-51.5 51.5-28.4 0-51.5-23-51.5-51.5 0-28.4 23.1-51.5 51.5-51.5 28.5 0 51.5 23.1 51.5 51.5z"/>
	<path class="s11" d="m1092.1 455.9c0 8.5-6.8 15.3-15.3 15.3-8.4 0-15.3-6.8-15.3-15.3 0-8.4 6.9-15.2 15.3-15.2 8.5 0 15.3 6.8 15.3 15.2z"/>
	<path class="s11" d="m1102.3 498.3c-0.4-13.8-11.7-24.8-25.6-24.8-13.8 0-25.1 11-25.5 24.8z"/>
	<path class="s50" d="m1364.3 480.4h-177.1c-12.4 0-22.4 10-22.4 22.4 0 12.4 10 22.4 22.4 22.4h177.1c12.4 0 22.5-10 22.5-22.4 0-12.4-10.1-22.4-22.5-22.4z"/>
	<path class="s11" d="m1242 494.6l-5.2 6.8v0.2l8.3-1.1v3.7l-8.3-1v0.1l5.3 6.6-3.5 1.9-3.2-7.6h-0.1l-3.6 7.7-3.1-2 5.2-6.7v-0.1l-8.1 1.1v-3.7l8 1v-0.1l-5.1-6.7 3.3-1.9 3.4 7.6h0.1l3.4-7.7z"/>
	<path class="s11" d="m1268.7 494.6l-5.2 6.8v0.2l8.3-1.1v3.7l-8.3-1v0.1l5.2 6.6-3.4 1.9-3.3-7.6h-0.1l-3.5 7.7-3.2-2 5.2-6.7v-0.1l-8.1 1.1v-3.7l8.1 1v-0.1l-5.2-6.7 3.4-1.9 3.4 7.6h0.1l3.3-7.7z"/>
	<path class="s11" d="m1295.4 494.6l-5.2 6.8v0.2l8.2-1.1v3.7l-8.2-1v0.1l5.2 6.6-3.4 1.9-3.3-7.6h-0.1l-3.6 7.7-3.1-2 5.2-6.7v-0.1l-8.1 1.1v-3.7l8.1 1v-0.1l-5.2-6.7 3.3-1.9 3.4 7.6h0.1l3.4-7.7z"/>
	<path class="s11" d="m1322 494.6l-5.1 6.8v0.2l8.2-1.1v3.7l-8.2-1v0.1l5.2 6.6-3.5 1.9-3.2-7.6h-0.1l-3.6 7.7-3.1-2 5.2-6.7v-0.1l-8.1 1.1v-3.7l8 1v-0.1l-5.1-6.7 3.3-1.9 3.4 7.6h0.1l3.4-7.7z"/>
	<path class="s11" d="m1348.7 494.6l-5.2 6.8v0.2l8.3-1.1v3.7l-8.3-1v0.1l5.3 6.6-3.5 1.9-3.3-7.6h-0.1l-3.5 7.7-3.1-2 5.2-6.7v-0.1l-8.1 1.1v-3.7l8 1v-0.1l-5.1-6.7 3.3-1.9 3.4 7.6h0.1l3.3-7.7z"/>
	<path fill-rule="evenodd" class="s11" d="m1210.1 501.9h-7.6c-0.9 0-1.6-0.8-1.6-1.8l0.1-4.7c0-3.2 2.4-5.8 5.4-5.8 2.9 0 5.3 2.6 5.3 5.9v4.7c-0.1 0.9-0.8 1.7-1.6 1.7zm-7.5-1.8h7.4l0.1-4.6c0-2.3-1.7-4.1-3.7-4.1-2.1-0.1-3.8 1.8-3.8 4z"/>
	<path fill-rule="evenodd" class="s11" d="m1210.1 502.1h-7.6c-1 0-1.8-0.9-1.8-2v-4.7c0.1-3.4 2.6-6.1 5.7-6.1 3 0.1 5.5 2.8 5.5 6.2v4.7c0 1.1-0.8 1.9-1.8 1.9zm-3.7-12.3c-2.9 0-5.2 2.5-5.2 5.6v4.7c0 0.8 0.6 1.5 1.3 1.5l7.6 0.1c0.7 0 1.3-0.7 1.3-1.5v-4.7c0.1-3.1-2.2-5.7-5-5.7zm3.9 10.6l-8-0.1 0.1-4.9c0-2.4 1.8-4.3 4-4.3 2.2 0 3.9 2 3.9 4.4zm-7.5-0.6l7 0.1 0.1-4.4c0-2.2-1.6-3.9-3.5-3.9-1.9 0-3.5 1.7-3.5 3.8z"/>
	<path fill-rule="evenodd" class="s11" d="m1213.9 511.1c0 0.6-0.6 1.1-1.3 1h-12.8c-0.7 0-1.2-0.5-1.2-1.1l0.1-10.8c0-0.6 0.5-1.1 1.2-1.1h12.8c0.7 0 1.3 0.5 1.2 1.1zm-6.9-5.1c0.4-0.3 0.6-0.8 0.6-1.3 0-0.8-0.6-1.5-1.3-1.5-0.7 0-1.3 0.7-1.3 1.5 0 0.5 0.2 1 0.6 1.3l-0.5 2.1h2.3z"/>
	<path class="s50" d="m1364.3 417.8h-177.1c-12.4 0-22.4 10.1-22.4 22.4 0 12.4 10 22.5 22.4 22.5h177.1c12.4 0 22.5-10.1 22.5-22.5 0-12.3-10.1-22.4-22.5-22.4z"/>
	<path class="s11" d="m1229.1 432.1l-5.2 6.8v0.1l8.2-1.1v3.7l-8.2-1v0.2l5.2 6.5-3.4 2-3.3-7.7h-0.1l-3.6 7.8-3.1-2 5.2-6.7v-0.1l-8.1 1v-3.7l8 1v-0.1l-5.1-6.6 3.3-1.9 3.4 7.6h0.1l3.4-7.7z"/>
	<path class="s11" d="m1255.7 432.1l-5.2 6.8v0.1l8.3-1.1v3.7l-8.3-1v0.2l5.3 6.5-3.5 2-3.2-7.7h-0.2l-3.5 7.8-3.1-2 5.2-6.7v-0.1l-8.1 1v-3.7l8 1v-0.1l-5.1-6.6 3.3-1.9 3.4 7.6h0.1l3.3-7.7z"/>
	<path class="s11" d="m1282.4 432.1l-5.2 6.8v0.1l8.3-1.1v3.7l-8.3-1v0.2l5.3 6.5-3.5 2-3.3-7.7h-0.1l-3.5 7.8-3.2-2 5.2-6.7v-0.1l-8 1v-3.7l8 1v-0.1l-5.2-6.6 3.4-1.9 3.4 7.6h0.1l3.3-7.7z"/>
	<path class="s11" d="m1309.1 432.1l-5.2 6.8v0.1l8.2-1.1v3.7l-8.2-1v0.2l5.2 6.5-3.4 2-3.3-7.7h-0.1l-3.6 7.8-3.1-2 5.2-6.7v-0.1l-8.1 1v-3.7l8.1 1v-0.1l-5.2-6.6 3.4-1.9 3.4 7.6h0.1l3.3-7.7z"/>
	<path class="s11" d="m1335.8 432.1l-5.2 6.8v0.1l8.2-1.1v3.7l-8.2-1v0.2l5.2 6.5-3.4 2-3.3-7.7h-0.1l-3.6 7.8-3.1-2 5.2-6.7v-0.1l-8.1 1v-3.7l8 1v-0.1l-5.1-6.6 3.3-1.9 3.4 7.6h0.1l3.4-7.7z"/>
	<path class="s51" d="m932.1 767.4h65.2v-65.3h-65.2z"/>
	<path class="s51" d="m796.5 414h65.2v-65.3h-65.2z"/>
	<path class="s51" d="m943.6 1169.5h65.3v-65.2h-65.3z"/>
	<path class="s51" d="m769.4 1056.7c-19 0-34.3-15.4-34.3-34.3 0-18.9 15.3-34.3 34.3-34.3 18.9 0 34.2 15.4 34.2 34.3 0 18.9-15.3 34.3-34.2 34.3z"/>
</svg>