<?xml version="1.0" encoding="UTF-8"?>
<svg xmlns="http://www.w3.org/2000/svg" xmlns:xlink="http://www.w3.org/1999/xlink" width="5000" height="3500" viewBox="0 0 5000 3500">
<defs>
<clipPath id="clip-0">

</clipPath>
<clipPath id="clip-1">
<path clip-rule="nonzero" d="M 1060.039062 1958.921875 L 3155.808594 3199.089844 L 4434.078125 2415.71875 L 2367.421875 1219.828125 Z M 1060.039062 1958.921875 "/>
</clipPath>
<clipPath id="clip-2">
<path clip-rule="nonzero" d="M 1060.039062 1958.921875 L 3155.808594 3199.089844 L 4434.078125 2415.71875 L 2367.421875 1219.828125 L 1060.039062 1958.921875 "/>
</clipPath>
<linearGradient id="linear-pattern-0" gradientUnits="userSpaceOnUse" x1="0.0144474" y1="0" x2="1.262772" y2="0" gradientTransform="matrix(2875.66, 1155.46, -1155.46, 2875.66, 912.657, 1466.54)">
<stop offset="0" stop-color="rgb(16.026306%, 66.564941%, 88.09967%)" stop-opacity="1"/>
<stop offset="0.0078125" stop-color="rgb(16.009521%, 66.398621%, 87.921143%)" stop-opacity="1"/>
<stop offset="0.015625" stop-color="rgb(15.974426%, 66.065979%, 87.565613%)" stop-opacity="1"/>
<stop offset="0.0234375" stop-color="rgb(15.940857%, 65.733337%, 87.210083%)" stop-opacity="1"/>
<stop offset="0.03125" stop-color="rgb(15.905762%, 65.400696%, 86.854553%)" stop-opacity="1"/>
<stop offset="0.0390625" stop-color="rgb(15.870667%, 65.068054%, 86.499023%)" stop-opacity="1"/>
<stop offset="0.046875" stop-color="rgb(15.837097%, 64.735413%, 86.143494%)" stop-opacity="1"/>
<stop offset="0.0546875" stop-color="rgb(15.802002%, 64.402771%, 85.787964%)" stop-opacity="1"/>
<stop offset="0.0625" stop-color="rgb(15.768433%, 64.070129%, 85.430908%)" stop-opacity="1"/>
<stop offset="0.0703125" stop-color="rgb(15.733337%, 63.737488%, 85.075378%)" stop-opacity="1"/>
<stop offset="0.078125" stop-color="rgb(15.699768%, 63.404846%, 84.719849%)" stop-opacity="1"/>
<stop offset="0.0859375" stop-color="rgb(15.664673%, 63.070679%, 84.364319%)" stop-opacity="1"/>
<stop offset="0.09375" stop-color="rgb(15.631104%, 62.738037%, 84.008789%)" stop-opacity="1"/>
<stop offset="0.101562" stop-color="rgb(15.596008%, 62.405396%, 83.653259%)" stop-opacity="1"/>
<stop offset="0.109375" stop-color="rgb(15.560913%, 62.072754%, 83.297729%)" stop-opacity="1"/>
<stop offset="0.117187" stop-color="rgb(15.527344%, 61.740112%, 82.9422%)" stop-opacity="1"/>
<stop offset="0.125" stop-color="rgb(15.492249%, 61.407471%, 82.58667%)" stop-opacity="1"/>
<stop offset="0.132812" stop-color="rgb(15.458679%, 61.074829%, 82.23114%)" stop-opacity="1"/>
<stop offset="0.140625" stop-color="rgb(15.423584%, 60.742188%, 81.874084%)" stop-opacity="1"/>
<stop offset="0.148437" stop-color="rgb(15.390015%, 60.409546%, 81.518555%)" stop-opacity="1"/>
<stop offset="0.15625" stop-color="rgb(15.354919%, 60.076904%, 81.163025%)" stop-opacity="1"/>
<stop offset="0.164062" stop-color="rgb(15.32135%, 59.744263%, 80.807495%)" stop-opacity="1"/>
<stop offset="0.171875" stop-color="rgb(15.286255%, 59.411621%, 80.451965%)" stop-opacity="1"/>
<stop offset="0.179687" stop-color="rgb(15.25116%, 59.078979%, 80.096436%)" stop-opacity="1"/>
<stop offset="0.1875" stop-color="rgb(15.21759%, 58.746338%, 79.740906%)" stop-opacity="1"/>
<stop offset="0.195312" stop-color="rgb(15.182495%, 58.413696%, 79.385376%)" stop-opacity="1"/>
<stop offset="0.203125" stop-color="rgb(15.148926%, 58.081055%, 79.029846%)" stop-opacity="1"/>
<stop offset="0.210937" stop-color="rgb(15.113831%, 57.748413%, 78.674316%)" stop-opacity="1"/>
<stop offset="0.21875" stop-color="rgb(15.080261%, 57.414246%, 78.317261%)" stop-opacity="1"/>
<stop offset="0.226562" stop-color="rgb(15.045166%, 57.081604%, 77.961731%)" stop-opacity="1"/>
<stop offset="0.234375" stop-color="rgb(15.010071%, 56.748962%, 77.606201%)" stop-opacity="1"/>
<stop offset="0.242187" stop-color="rgb(14.976501%, 56.416321%, 77.250671%)" stop-opacity="1"/>
<stop offset="0.25" stop-color="rgb(14.941406%, 56.083679%, 76.895142%)" stop-opacity="1"/>
<stop offset="0.257812" stop-color="rgb(14.907837%, 55.751038%, 76.539612%)" stop-opacity="1"/>
<stop offset="0.265625" stop-color="rgb(14.872742%, 55.418396%, 76.184082%)" stop-opacity="1"/>
<stop offset="0.273437" stop-color="rgb(14.839172%, 55.085754%, 75.828552%)" stop-opacity="1"/>
<stop offset="0.28125" stop-color="rgb(14.804077%, 54.753113%, 75.473022%)" stop-opacity="1"/>
<stop offset="0.289062" stop-color="rgb(14.770508%, 54.420471%, 75.117493%)" stop-opacity="1"/>
<stop offset="0.296875" stop-color="rgb(14.735413%, 54.08783%, 74.760437%)" stop-opacity="1"/>
<stop offset="0.304687" stop-color="rgb(14.700317%, 53.755188%, 74.404907%)" stop-opacity="1"/>
<stop offset="0.3125" stop-color="rgb(14.666748%, 53.422546%, 74.049377%)" stop-opacity="1"/>
<stop offset="0.320312" stop-color="rgb(14.631653%, 53.089905%, 73.693848%)" stop-opacity="1"/>
<stop offset="0.328125" stop-color="rgb(14.598083%, 52.757263%, 73.338318%)" stop-opacity="1"/>
<stop offset="0.335937" stop-color="rgb(14.562988%, 52.424622%, 72.982788%)" stop-opacity="1"/>
<stop offset="0.34375" stop-color="rgb(14.529419%, 52.090454%, 72.627258%)" stop-opacity="1"/>
<stop offset="0.351562" stop-color="rgb(14.494324%, 51.757812%, 72.271729%)" stop-opacity="1"/>
<stop offset="0.359375" stop-color="rgb(14.460754%, 51.425171%, 71.916199%)" stop-opacity="1"/>
<stop offset="0.367187" stop-color="rgb(14.425659%, 51.092529%, 71.560669%)" stop-opacity="1"/>
<stop offset="0.375" stop-color="rgb(14.390564%, 50.759888%, 71.203613%)" stop-opacity="1"/>
<stop offset="0.382812" stop-color="rgb(14.356995%, 50.427246%, 70.848083%)" stop-opacity="1"/>
<stop offset="0.390625" stop-color="rgb(14.321899%, 50.094604%, 70.492554%)" stop-opacity="1"/>
<stop offset="0.398437" stop-color="rgb(14.28833%, 49.761963%, 70.137024%)" stop-opacity="1"/>
<stop offset="0.40625" stop-color="rgb(14.253235%, 49.429321%, 69.781494%)" stop-opacity="1"/>
<stop offset="0.414062" stop-color="rgb(14.219666%, 49.09668%, 69.425964%)" stop-opacity="1"/>
<stop offset="0.421875" stop-color="rgb(14.18457%, 48.764038%, 69.070435%)" stop-opacity="1"/>
<stop offset="0.429688" stop-color="rgb(14.151001%, 48.431396%, 68.714905%)" stop-opacity="1"/>
<stop offset="0.4375" stop-color="rgb(14.115906%, 48.098755%, 68.359375%)" stop-opacity="1"/>
<stop offset="0.445312" stop-color="rgb(14.080811%, 47.766113%, 68.003845%)" stop-opacity="1"/>
<stop offset="0.453125" stop-color="rgb(14.047241%, 47.433472%, 67.64679%)" stop-opacity="1"/>
<stop offset="0.460937" stop-color="rgb(14.012146%, 47.10083%, 67.29126%)" stop-opacity="1"/>
<stop offset="0.46875" stop-color="rgb(13.978577%, 46.768188%, 66.93573%)" stop-opacity="1"/>
<stop offset="0.476562" stop-color="rgb(13.943481%, 46.434021%, 66.5802%)" stop-opacity="1"/>
<stop offset="0.484375" stop-color="rgb(13.909912%, 46.101379%, 66.22467%)" stop-opacity="1"/>
<stop offset="0.492187" stop-color="rgb(13.874817%, 45.768738%, 65.869141%)" stop-opacity="1"/>
<stop offset="0.5" stop-color="rgb(13.841248%, 45.436096%, 65.513611%)" stop-opacity="1"/>
<stop offset="0.507813" stop-color="rgb(13.806152%, 45.103455%, 65.158081%)" stop-opacity="1"/>
<stop offset="0.515625" stop-color="rgb(13.771057%, 44.770813%, 64.802551%)" stop-opacity="1"/>
<stop offset="0.523438" stop-color="rgb(13.737488%, 44.438171%, 64.447021%)" stop-opacity="1"/>
<stop offset="0.53125" stop-color="rgb(13.702393%, 44.10553%, 64.089966%)" stop-opacity="1"/>
<stop offset="0.539062" stop-color="rgb(13.668823%, 43.772888%, 63.734436%)" stop-opacity="1"/>
<stop offset="0.546875" stop-color="rgb(13.633728%, 43.440247%, 63.378906%)" stop-opacity="1"/>
<stop offset="0.554688" stop-color="rgb(13.600159%, 43.107605%, 63.023376%)" stop-opacity="1"/>
<stop offset="0.5625" stop-color="rgb(13.565063%, 42.774963%, 62.667847%)" stop-opacity="1"/>
<stop offset="0.570312" stop-color="rgb(13.529968%, 42.442322%, 62.312317%)" stop-opacity="1"/>
<stop offset="0.578125" stop-color="rgb(13.496399%, 42.10968%, 61.956787%)" stop-opacity="1"/>
<stop offset="0.585937" stop-color="rgb(13.461304%, 41.777039%, 61.601257%)" stop-opacity="1"/>
<stop offset="0.59375" stop-color="rgb(13.427734%, 41.444397%, 61.245728%)" stop-opacity="1"/>
<stop offset="0.601562" stop-color="rgb(13.392639%, 41.110229%, 60.890198%)" stop-opacity="1"/>
<stop offset="0.609375" stop-color="rgb(13.35907%, 40.777588%, 60.533142%)" stop-opacity="1"/>
<stop offset="0.617187" stop-color="rgb(13.323975%, 40.444946%, 60.177612%)" stop-opacity="1"/>
<stop offset="0.625" stop-color="rgb(13.290405%, 40.112305%, 59.822083%)" stop-opacity="1"/>
<stop offset="0.632813" stop-color="rgb(13.25531%, 39.779663%, 59.466553%)" stop-opacity="1"/>
<stop offset="0.640625" stop-color="rgb(13.220215%, 39.447021%, 59.111023%)" stop-opacity="1"/>
<stop offset="0.648438" stop-color="rgb(13.186646%, 39.11438%, 58.755493%)" stop-opacity="1"/>
<stop offset="0.65625" stop-color="rgb(13.15155%, 38.781738%, 58.399963%)" stop-opacity="1"/>
<stop offset="0.664062" stop-color="rgb(13.117981%, 38.449097%, 58.044434%)" stop-opacity="1"/>
<stop offset="0.671875" stop-color="rgb(13.082886%, 38.116455%, 57.688904%)" stop-opacity="1"/>
<stop offset="0.679688" stop-color="rgb(13.049316%, 37.783813%, 57.333374%)" stop-opacity="1"/>
<stop offset="0.6875" stop-color="rgb(13.014221%, 37.451172%, 56.976318%)" stop-opacity="1"/>
<stop offset="0.695312" stop-color="rgb(12.980652%, 37.11853%, 56.620789%)" stop-opacity="1"/>
<stop offset="0.703125" stop-color="rgb(12.945557%, 36.785889%, 56.265259%)" stop-opacity="1"/>
<stop offset="0.710937" stop-color="rgb(12.910461%, 36.453247%, 55.909729%)" stop-opacity="1"/>
<stop offset="0.71875" stop-color="rgb(12.876892%, 36.120605%, 55.554199%)" stop-opacity="1"/>
<stop offset="0.726562" stop-color="rgb(12.841797%, 35.787964%, 55.198669%)" stop-opacity="1"/>
<stop offset="0.734375" stop-color="rgb(12.808228%, 35.453796%, 54.84314%)" stop-opacity="1"/>
<stop offset="0.742187" stop-color="rgb(12.773132%, 35.121155%, 54.48761%)" stop-opacity="1"/>
<stop offset="0.75" stop-color="rgb(12.739563%, 34.788513%, 54.13208%)" stop-opacity="1"/>
<stop offset="0.757812" stop-color="rgb(12.704468%, 34.455872%, 53.77655%)" stop-opacity="1"/>
<stop offset="0.765625" stop-color="rgb(12.670898%, 34.12323%, 53.419495%)" stop-opacity="1"/>
<stop offset="0.773438" stop-color="rgb(12.635803%, 33.790588%, 53.063965%)" stop-opacity="1"/>
<stop offset="0.78125" stop-color="rgb(12.600708%, 33.457947%, 52.708435%)" stop-opacity="1"/>
<stop offset="0.8125" stop-color="rgb(12.565613%, 33.11615%, 52.34375%)" stop-opacity="1"/>
<stop offset="0.875" stop-color="rgb(12.548828%, 32.940674%, 52.156067%)" stop-opacity="1"/>
<stop offset="1" stop-color="rgb(12.548828%, 32.940674%, 52.156067%)" stop-opacity="1"/>
</linearGradient>
</defs>
<path fill-rule="nonzero" fill="rgb(96.875%, 77.734375%, 85.15625%)" fill-opacity="1" d="M 374.652344 2513.179688 C 284.96875 1847.808594 1862.359375 1262.109375 1993.140625 1215.859375 C 2216.46875 1136.871094 2418.269531 1093.21875 2630.648438 1138.039062 C 2769.800781 1167.410156 2905.808594 1252.050781 3172.148438 1420.128906 C 3538.910156 1651.578125 3510.648438 1677.378906 3662.140625 1732.511719 C 3905.648438 1821.121094 3981.371094 1755.429688 4290.660156 1867.230469 C 4531.761719 1954.371094 4618.371094 2042.21875 4642.410156 2067.910156 C 4761.230469 2194.898438 4780.589844 2350.789062 4783.800781 2380.851562 C 4800.988281 2542.199219 4740.21875 2662.328125 4720.371094 2700.261719 C 4692.578125 2753.371094 4646.410156 2821.171875 4519.800781 2921.410156 C 4317.671875 3081.441406 4123.96875 3155.199219 3964.371094 3214.550781 C 3860.308594 3253.25 3701.410156 3311.410156 3480.941406 3348.261719 C 3437.261719 3355.570312 3243.710938 3386.679688 2982.078125 3379.121094 C 2747.671875 3372.351562 2630.46875 3368.96875 2508.941406 3317.410156 C 2325.191406 3239.460938 2312.429688 3149.308594 2130.710938 3084.351562 C 1998.898438 3037.230469 1899.578125 3055.539062 1758.929688 3051.019531 C 1297.738281 3036.171875 1032.070312 3049.769531 773.851562 2945.171875 C 437.960938 2809.109375 385.203125 2591.460938 374.652344 2513.179688 "/>
<g clip-path="url(#clip-0)">
<g clip-path="url(#clip-1)">
<g clip-path="url(#clip-2)">
<path fill-rule="nonzero" fill="url(#linear-pattern-0)" d="M 1529.054688 52.570312 L 375.308594 2923.960938 L 3965.066406 4366.351562 L 5118.8125 1494.960938 Z M 1529.054688 52.570312 "/>
</g>
</g>
</g>
<path fill-rule="nonzero" fill="rgb(50.193787%, 50.193787%, 50.193787%)" fill-opacity="1" d="M 1310.140625 1956.589844 L 3150.269531 3034.160156 L 3150.269531 2945.171875 L 1310.140625 1882.398438 L 1310.140625 1956.589844 "/>
<path fill-rule="nonzero" fill="rgb(30.200195%, 30.200195%, 30.200195%)" fill-opacity="1" d="M 1310.140625 1956.589844 L 1309.890625 1957.019531 L 3150.769531 3035.03125 L 3150.769531 2944.878906 L 1309.640625 1881.53125 L 1309.640625 1956.878906 L 1309.890625 1957.019531 L 1310.140625 1956.589844 L 1310.640625 1956.589844 L 1310.640625 1883.261719 L 3149.769531 2945.460938 L 3149.769531 3033.289062 L 1310.398438 1956.160156 L 1310.140625 1956.589844 L 1310.640625 1956.589844 L 1310.140625 1956.589844 "/>
<path fill-rule="nonzero" fill="rgb(30.200195%, 30.200195%, 30.200195%)" fill-opacity="1" d="M 3150.269531 2945.171875 L 4188.75 2345.96875 L 4188.75 2437.988281 L 3150.269531 3034.160156 L 3150.269531 2945.171875 "/>
<path fill-rule="nonzero" fill="rgb(98.4375%, 92.576599%, 95.701599%)" fill-opacity="1" d="M 2351.671875 1277.121094 L 4188.75 2345.96875 L 3150.269531 2945.171875 L 1310.140625 1882.398438 L 2351.671875 1277.121094 "/>
<path fill-rule="nonzero" fill="rgb(50.193787%, 65.429688%, 86.326599%)" fill-opacity="1" d="M 2437.171875 1621.140625 L 1750.441406 2022.078125 L 1771.230469 2038.210938 L 2460.980469 1635.429688 L 2437.171875 1621.140625 "/>
<path fill-rule="nonzero" fill="rgb(50.193787%, 65.429688%, 86.326599%)" fill-opacity="1" d="M 2497.960938 1660.300781 L 1811.230469 2061.230469 L 1832.03125 2077.371094 L 2521.78125 1674.589844 L 2497.960938 1660.300781 "/>
<path fill-rule="nonzero" fill="rgb(50.193787%, 65.429688%, 86.326599%)" fill-opacity="1" d="M 2556.730469 1698.320312 L 1870 2099.261719 L 1890.789062 2115.390625 L 2580.539062 1712.609375 L 2556.730469 1698.320312 "/>
<path fill-rule="nonzero" fill="rgb(50.193787%, 65.429688%, 86.326599%)" fill-opacity="1" d="M 2612.410156 1733.050781 L 1925.679688 2133.988281 L 1946.480469 2150.121094 L 2636.230469 1747.339844 L 2612.410156 1733.050781 "/>
<path fill-rule="nonzero" fill="rgb(50.193787%, 65.429688%, 86.326599%)" fill-opacity="1" d="M 2679.859375 1761.96875 L 1993.140625 2162.910156 L 2017.5 2176.960938 L 2698.21875 1779.449219 L 2679.859375 1761.96875 "/>
<path fill-rule="nonzero" fill="rgb(50.193787%, 65.429688%, 86.326599%)" fill-opacity="1" d="M 2743.351562 1800.050781 L 2056.621094 2200.988281 L 2077.410156 2217.121094 L 2767.160156 1814.339844 L 2743.351562 1800.050781 "/>
<path fill-rule="nonzero" fill="rgb(50.193787%, 65.429688%, 86.326599%)" fill-opacity="1" d="M 2814.890625 1829.671875 L 2128.160156 2230.609375 L 2148.960938 2246.738281 L 2838.699219 1843.960938 L 2814.890625 1829.671875 "/>
<path fill-rule="nonzero" fill="rgb(50.193787%, 65.429688%, 86.326599%)" fill-opacity="1" d="M 2873.789062 1868.828125 L 2187.070312 2269.769531 L 2207.859375 2285.898438 L 2897.609375 1883.121094 L 2873.789062 1868.828125 "/>
<path fill-rule="nonzero" fill="rgb(50.193787%, 65.429688%, 86.326599%)" fill-opacity="1" d="M 2925.699219 1906.859375 L 2238.96875 2307.789062 L 2259.769531 2323.921875 L 2949.519531 1921.148438 L 2925.699219 1906.859375 "/>
<path fill-rule="nonzero" fill="rgb(50.193787%, 65.429688%, 86.326599%)" fill-opacity="1" d="M 2987.789062 1941.589844 L 2301.058594 2342.53125 L 2321.859375 2358.660156 L 3011.609375 1955.878906 L 2987.789062 1941.589844 "/>
<path fill-rule="nonzero" fill="rgb(50.193787%, 65.429688%, 86.326599%)" fill-opacity="1" d="M 3054.148438 1978.339844 L 2367.421875 2379.28125 L 2388.21875 2395.410156 L 3077.960938 1992.628906 L 3054.148438 1978.339844 "/>
<path fill-rule="nonzero" fill="rgb(50.193787%, 65.429688%, 86.326599%)" fill-opacity="1" d="M 3112.121094 2008.578125 L 2425.390625 2409.519531 L 2446.191406 2425.648438 L 3135.929688 2022.878906 L 3112.121094 2008.578125 "/>
<path fill-rule="nonzero" fill="rgb(50.193787%, 65.429688%, 86.326599%)" fill-opacity="1" d="M 2615.839844 1517 L 2461.988281 1605.058594 L 2491.351562 1621.140625 L 2641.648438 1535.21875 L 2615.839844 1517 "/>
<path fill-rule="nonzero" fill="rgb(50.193787%, 65.429688%, 86.326599%)" fill-opacity="1" d="M 2677.949219 1553.730469 L 2524.101562 1641.789062 L 2553.460938 1657.859375 L 2703.761719 1571.949219 L 2677.949219 1553.730469 "/>
<path fill-rule="nonzero" fill="rgb(50.193787%, 65.429688%, 86.326599%)" fill-opacity="1" d="M 2741.351562 1591.308594 L 2587.5 1679.371094 L 2616.851562 1695.449219 L 2767.160156 1609.53125 L 2741.351562 1591.308594 "/>
<path fill-rule="nonzero" fill="rgb(50.193787%, 65.429688%, 86.326599%)" fill-opacity="1" d="M 2802.710938 1628.921875 L 2648.859375 1716.980469 L 2678.210938 1733.050781 L 2828.519531 1647.140625 L 2802.710938 1628.921875 "/>
<path fill-rule="nonzero" fill="rgb(50.193787%, 65.429688%, 86.326599%)" fill-opacity="1" d="M 3051.460938 1762.621094 L 2897.609375 1850.679688 L 2926.960938 1866.761719 L 3077.269531 1780.839844 L 3051.460938 1762.621094 "/>
<path fill-rule="nonzero" fill="rgb(50.193787%, 65.429688%, 86.326599%)" fill-opacity="1" d="M 3110.121094 1800.050781 L 2956.269531 1888.109375 L 2985.628906 1904.191406 L 3135.929688 1818.269531 L 3110.121094 1800.050781 "/>
<path fill-rule="nonzero" fill="rgb(50.193787%, 65.429688%, 86.326599%)" fill-opacity="1" d="M 3165.460938 1837.449219 L 3011.609375 1925.511719 L 3040.960938 1941.589844 L 3191.269531 1855.671875 L 3165.460938 1837.449219 "/>
<path fill-rule="nonzero" fill="rgb(50.193787%, 65.429688%, 86.326599%)" fill-opacity="1" d="M 3239.238281 1868.828125 L 3085.390625 1956.890625 L 3114.75 1972.960938 L 3265.050781 1887.050781 L 3239.238281 1868.828125 "/>
<path fill-rule="nonzero" fill="rgb(50.193787%, 65.429688%, 86.326599%)" fill-opacity="1" d="M 3297.160156 1906.859375 L 3143.308594 1994.921875 L 3172.671875 2010.988281 L 3322.96875 1925.078125 L 3297.160156 1906.859375 "/>
<path fill-rule="nonzero" fill="rgb(50.193787%, 65.429688%, 86.326599%)" fill-opacity="1" d="M 3910.410156 2266.710938 L 3756.558594 2354.769531 L 3785.910156 2370.839844 L 3936.21875 2284.929688 L 3910.410156 2266.710938 "/>
<path fill-rule="nonzero" fill="rgb(50.193787%, 65.429688%, 86.326599%)" fill-opacity="1" d="M 3970.171875 2298.699219 L 3816.320312 2386.761719 L 3845.671875 2402.839844 L 3995.980469 2316.921875 L 3970.171875 2298.699219 "/>
<path fill-rule="nonzero" fill="rgb(45.872498%, 29.80957%, 14.109802%)" fill-opacity="1" d="M 3843.609375 2228.558594 L 2975.160156 2728.570312 L 2965.039062 2718.449219 L 3837.53125 2217.121094 L 3843.609375 2228.558594 "/>
<path fill-rule="nonzero" fill="rgb(0%, 0%, 0%)" fill-opacity="1" d="M 3843.609375 2228.558594 L 3843.359375 2228.121094 L 2975.25 2727.941406 L 2965.859375 2718.558594 L 3837.328125 2217.808594 L 3843.160156 2228.789062 L 3843.609375 2228.558594 L 3843.359375 2228.121094 L 3843.609375 2228.558594 L 3844.050781 2228.320312 L 3837.730469 2216.429688 L 2964.230469 2718.339844 L 2975.078125 2729.191406 L 3844.269531 2228.75 L 3844.050781 2228.320312 L 3843.609375 2228.558594 "/>
<path fill-rule="nonzero" fill="rgb(98.4375%, 68.943787%, 23.143005%)" fill-opacity="1" d="M 2644.628906 2361.210938 L 2493.019531 2452.671875 L 2517.628906 2467.96875 L 2670.5 2379.878906 L 2644.628906 2361.210938 "/>
<path fill-rule="nonzero" fill="rgb(0%, 0%, 0%)" fill-opacity="1" d="M 2644.628906 2361.210938 L 2644.371094 2360.78125 L 2492.058594 2452.660156 L 2517.621094 2468.558594 L 2671.421875 2379.921875 L 2644.648438 2360.609375 L 2644.371094 2360.78125 L 2644.628906 2361.210938 L 2644.339844 2361.609375 L 2669.578125 2379.828125 L 2517.640625 2467.390625 L 2493.96875 2452.679688 L 2644.890625 2361.640625 L 2644.628906 2361.210938 L 2644.339844 2361.609375 L 2644.628906 2361.210938 "/>
<path fill-rule="nonzero" fill="rgb(96.875%, 57.617188%, 11.767578%)" fill-opacity="1" d="M 2707.160156 2397.769531 L 2555.550781 2489.230469 L 2580.171875 2504.539062 L 2733.03125 2416.441406 L 2707.160156 2397.769531 "/>
<path fill-rule="nonzero" fill="rgb(0%, 0%, 0%)" fill-opacity="1" d="M 2707.160156 2397.769531 L 2706.898438 2397.339844 L 2554.589844 2489.230469 L 2580.160156 2505.121094 L 2733.949219 2416.488281 L 2707.191406 2397.171875 L 2706.898438 2397.339844 L 2707.160156 2397.769531 L 2706.871094 2398.179688 L 2732.109375 2416.390625 L 2580.179688 2503.949219 L 2556.511719 2489.238281 L 2707.421875 2398.199219 L 2707.160156 2397.769531 L 2706.871094 2398.179688 L 2707.160156 2397.769531 "/>
<path fill-rule="nonzero" fill="rgb(96.875%, 57.617188%, 11.767578%)" fill-opacity="1" d="M 2733.03125 2513.988281 L 3021.871094 2685.789062 L 3058.398438 2664.800781 L 2768.128906 2493.328125 L 2733.03125 2513.988281 "/>
<path fill-rule="nonzero" fill="rgb(0%, 0%, 0%)" fill-opacity="1" d="M 2733.03125 2513.988281 L 2732.78125 2514.421875 L 3021.871094 2686.371094 L 3059.398438 2664.808594 L 2768.128906 2492.75 L 2732.050781 2513.988281 L 2732.78125 2514.421875 L 2733.03125 2513.988281 L 2733.289062 2514.421875 L 2768.128906 2493.910156 L 3057.410156 2664.800781 L 3021.878906 2685.210938 L 2733.289062 2513.558594 L 2733.03125 2513.988281 L 2733.289062 2514.421875 L 2733.03125 2513.988281 "/>
<path fill-rule="nonzero" fill="rgb(96.875%, 57.617188%, 11.767578%)" fill-opacity="1" d="M 3231.171875 2155.609375 L 3583.519531 2365.199219 L 3620.050781 2344.210938 L 3271.21875 2132.398438 L 3231.171875 2155.609375 "/>
<path fill-rule="nonzero" fill="rgb(0%, 0%, 0%)" fill-opacity="1" d="M 3231.171875 2155.609375 L 3230.921875 2156.039062 L 3583.519531 2365.769531 L 3621.039062 2344.21875 L 3271.230469 2131.820312 L 3230.191406 2155.609375 L 3230.921875 2156.039062 L 3231.171875 2155.609375 L 3231.421875 2156.050781 L 3271.21875 2132.980469 L 3619.070312 2344.191406 L 3583.53125 2364.621094 L 3231.429688 2155.179688 L 3231.171875 2155.609375 L 3231.421875 2156.050781 L 3231.171875 2155.609375 "/>
<path fill-rule="nonzero" fill="rgb(96.875%, 57.617188%, 11.767578%)" fill-opacity="1" d="M 2892.738281 2509.871094 L 3106.789062 2637.179688 L 3143.320312 2616.191406 L 2930.140625 2490.261719 L 2892.738281 2509.871094 "/>
<path fill-rule="nonzero" fill="rgb(0%, 0%, 0%)" fill-opacity="1" d="M 2892.738281 2509.871094 L 2892.480469 2510.289062 L 3106.78125 2637.761719 L 3144.308594 2616.199219 L 2930.148438 2489.691406 L 2891.710938 2509.839844 L 2892.480469 2510.289062 L 2892.738281 2509.871094 L 2892.96875 2510.308594 L 2930.128906 2490.828125 L 3142.320312 2616.191406 L 3106.789062 2636.601562 L 2892.988281 2509.441406 L 2892.738281 2509.871094 L 2892.96875 2510.308594 L 2892.738281 2509.871094 "/>
<path fill-rule="nonzero" fill="rgb(96.875%, 57.617188%, 11.767578%)" fill-opacity="1" d="M 3214.320312 2323.839844 L 3428.371094 2451.148438 L 3464.898438 2430.160156 L 3251.71875 2304.230469 L 3214.320312 2323.839844 "/>
<path fill-rule="nonzero" fill="rgb(0%, 0%, 0%)" fill-opacity="1" d="M 3214.320312 2323.839844 L 3214.058594 2324.269531 L 3428.359375 2451.730469 L 3465.890625 2430.171875 L 3251.730469 2303.660156 L 3213.289062 2323.808594 L 3214.058594 2324.269531 L 3214.320312 2323.839844 L 3214.550781 2324.28125 L 3251.699219 2304.800781 L 3463.898438 2430.160156 L 3428.371094 2450.570312 L 3214.570312 2323.410156 L 3214.320312 2323.839844 L 3214.550781 2324.28125 L 3214.320312 2323.839844 "/>
<path fill-rule="nonzero" fill="rgb(96.875%, 57.617188%, 11.767578%)" fill-opacity="1" d="M 3011.609375 2397.300781 L 3262.191406 2546.339844 L 3300.019531 2525.96875 L 3049.011719 2377.691406 L 3011.609375 2397.300781 "/>
<path fill-rule="nonzero" fill="rgb(0%, 0%, 0%)" fill-opacity="1" d="M 3011.609375 2397.300781 L 3011.351562 2397.730469 L 3262.179688 2546.921875 L 3301.03125 2525.988281 L 3049.019531 2377.121094 L 3010.578125 2397.269531 L 3011.351562 2397.730469 L 3011.609375 2397.300781 L 3011.839844 2397.738281 L 3049 2378.261719 L 3299 2525.949219 L 3262.199219 2545.769531 L 3011.859375 2396.871094 L 3011.609375 2397.300781 L 3011.839844 2397.738281 L 3011.609375 2397.300781 "/>
<path fill-rule="nonzero" fill="rgb(96.875%, 57.617188%, 11.767578%)" fill-opacity="1" d="M 3411.960938 2169.730469 L 3662.539062 2318.769531 L 3700.371094 2298.398438 L 3449.359375 2150.121094 L 3411.960938 2169.730469 "/>
<path fill-rule="nonzero" fill="rgb(0%, 0%, 0%)" fill-opacity="1" d="M 3411.960938 2169.730469 L 3411.699219 2170.160156 L 3662.519531 2319.351562 L 3701.378906 2298.421875 L 3449.371094 2149.550781 L 3410.929688 2169.699219 L 3411.699219 2170.160156 L 3411.960938 2169.730469 L 3412.191406 2170.171875 L 3449.339844 2150.699219 L 3699.351562 2298.378906 L 3662.550781 2318.199219 L 3412.210938 2169.300781 L 3411.960938 2169.730469 L 3412.191406 2170.171875 L 3411.960938 2169.730469 "/>
<path fill-rule="nonzero" fill="rgb(96.875%, 57.617188%, 11.767578%)" fill-opacity="1" d="M 3029.148438 2497.789062 L 3190.199219 2589.558594 L 3226.730469 2568.570312 L 3066.929688 2474.171875 L 3029.148438 2497.789062 "/>
<path fill-rule="nonzero" fill="rgb(0%, 0%, 0%)" fill-opacity="1" d="M 3029.148438 2497.789062 L 3028.898438 2498.230469 L 3190.199219 2590.140625 L 3227.71875 2568.578125 L 3066.929688 2473.589844 L 3028.171875 2497.808594 L 3028.898438 2498.230469 L 3029.148438 2497.789062 L 3029.410156 2498.21875 L 3066.941406 2474.761719 L 3225.730469 2568.558594 L 3190.199219 2588.980469 L 3029.390625 2497.359375 L 3029.148438 2497.789062 L 3029.410156 2498.21875 L 3029.148438 2497.789062 "/>
<path fill-rule="nonzero" fill="rgb(96.875%, 57.617188%, 11.767578%)" fill-opacity="1" d="M 3345.371094 2316.699219 L 3506.421875 2408.460938 L 3542.949219 2387.46875 L 3383.160156 2293.078125 L 3345.371094 2316.699219 "/>
<path fill-rule="nonzero" fill="rgb(0%, 0%, 0%)" fill-opacity="1" d="M 3345.371094 2316.699219 L 3345.121094 2317.128906 L 3506.421875 2409.039062 L 3543.949219 2387.480469 L 3383.148438 2292.488281 L 3344.398438 2316.71875 L 3345.121094 2317.128906 L 3345.371094 2316.699219 L 3345.640625 2317.121094 L 3383.171875 2293.660156 L 3541.960938 2387.46875 L 3506.421875 2407.890625 L 3345.621094 2316.261719 L 3345.371094 2316.699219 L 3345.640625 2317.121094 L 3345.371094 2316.699219 "/>
<path fill-rule="nonzero" fill="rgb(96.875%, 57.617188%, 11.767578%)" fill-opacity="1" d="M 3236.269531 2438.300781 L 3343.800781 2499.558594 L 3380.328125 2478.570312 L 3273.351562 2415.378906 L 3236.269531 2438.300781 "/>
<path fill-rule="nonzero" fill="rgb(0%, 0%, 0%)" fill-opacity="1" d="M 3236.269531 2438.300781 L 3236.03125 2438.730469 L 3343.800781 2500.140625 L 3381.320312 2478.578125 L 3273.339844 2414.789062 L 3235.300781 2438.320312 L 3236.03125 2438.730469 L 3236.269531 2438.300781 L 3236.539062 2438.71875 L 3273.351562 2415.960938 L 3379.328125 2478.570312 L 3343.800781 2498.988281 L 3236.519531 2437.859375 L 3236.269531 2438.300781 L 3236.539062 2438.71875 L 3236.269531 2438.300781 "/>
<path fill-rule="nonzero" fill="rgb(96.875%, 57.617188%, 11.767578%)" fill-opacity="1" d="M 3640.03125 2209.800781 L 3747.550781 2271.058594 L 3784.078125 2250.070312 L 3677.101562 2186.878906 L 3640.03125 2209.800781 "/>
<path fill-rule="nonzero" fill="rgb(0%, 0%, 0%)" fill-opacity="1" d="M 3640.03125 2209.800781 L 3639.78125 2210.230469 L 3747.550781 2271.640625 L 3785.070312 2250.078125 L 3677.101562 2186.289062 L 3639.050781 2209.808594 L 3639.78125 2210.230469 L 3640.03125 2209.800781 L 3640.289062 2210.21875 L 3677.109375 2187.460938 L 3783.089844 2250.070312 L 3747.550781 2270.488281 L 3640.28125 2209.359375 L 3640.03125 2209.800781 L 3640.289062 2210.21875 L 3640.03125 2209.800781 "/>
<path fill-rule="nonzero" fill="rgb(50.193787%, 65.429688%, 86.326599%)" fill-opacity="1" d="M 3730.238281 2369.589844 L 3038.851562 2767.148438 L 3065.578125 2785.25 L 3756.558594 2386.460938 L 3730.238281 2369.589844 "/>
<path fill-rule="nonzero" fill="rgb(50.193787%, 65.429688%, 86.326599%)" fill-opacity="1" d="M 3790 2408.460938 L 3098.609375 2806.03125 L 3125.339844 2824.128906 L 3816.320312 2425.328125 L 3790 2408.460938 "/>
<path fill-rule="nonzero" fill="rgb(49.804688%, 65.039062%, 84.764099%)" fill-opacity="1" d="M 2360.441406 1372.941406 L 1495.269531 1874.929688 L 1640.46875 1963.460938 L 2514.269531 1457.390625 L 2360.441406 1372.941406 "/>
<path fill-rule="nonzero" fill="rgb(65.039062%, 48.631287%, 32.151794%)" fill-opacity="1" d="M 3334.878906 2001.261719 L 3334.878906 2014.03125 C 3334.878906 2014.03125 3367.878906 2034.730469 3384.078125 2017.519531 C 3400.269531 2000.308594 3393.300781 2004.039062 3393.300781 2004.039062 L 3392.179688 1983.609375 L 3334.878906 2001.261719 "/>
<path fill-rule="nonzero" fill="rgb(17.651367%, 7.835388%, 2.352905%)" fill-opacity="1" d="M 3294.5 1442.101562 L 3183.671875 1636.941406 C 3183.671875 1636.941406 3214.550781 1714.78125 3218.589844 1766 C 3223.140625 1823.691406 3211.101562 1914.78125 3211.101562 1914.78125 L 3136.601562 1914.78125 C 3136.601562 1914.78125 3073.03125 1619.910156 3080.429688 1535.21875 C 3087.820312 1450.53125 3150.929688 1278.601562 3150.929688 1278.601562 L 3280.328125 1272.601562 L 3316.570312 1410.71875 L 3294.5 1442.101562 "/>
<path fill-rule="nonzero" fill="rgb(25.87738%, 12.939453%, 4.315186%)" fill-opacity="1" d="M 3422.539062 1301.410156 C 3422.539062 1301.410156 3367.640625 1641.5 3374.851562 1659.71875 C 3382.058594 1677.941406 3414.558594 1771.058594 3412.421875 1835.828125 C 3410.28125 1900.609375 3398.371094 1991.710938 3398.371094 1991.710938 C 3398.371094 1991.710938 3326.699219 2004.738281 3331.101562 2001.261719 C 3335.5 1997.78125 3270.210938 1823.691406 3275.78125 1684.011719 C 3277.558594 1639.21875 3212.210938 1449.191406 3211.101562 1412.75 C 3209.988281 1376.308594 3211.101562 1320.511719 3211.101562 1320.511719 L 3422.539062 1301.410156 "/>
<path fill-rule="nonzero" fill="rgb(0%, 0%, 0%)" fill-opacity="1" d="M 3330.941406 2010.429688 C 3330.941406 2010.429688 3265.660156 2127.339844 3270.210938 2136.449219 C 3274.769531 2145.558594 3291.808594 2185.03125 3350.851562 2136.449219 C 3350.851562 2136.449219 3373.199219 2123.78125 3374.851562 2085.320312 C 3374.851562 2085.320312 3393.191406 2083.308594 3397.738281 2066.609375 C 3402.300781 2049.910156 3397.738281 2001.261719 3397.738281 2001.261719 C 3397.738281 2001.261719 3350.679688 2033.210938 3330.941406 2010.429688 "/>
<path fill-rule="nonzero" fill="rgb(0%, 0%, 0%)" fill-opacity="1" d="M 3136.601562 1914.789062 C 3136.601562 1914.789062 3039.941406 1991.710938 3050.058594 2011.28125 C 3060.191406 2030.851562 3077.730469 2036.089844 3108.769531 2024.359375 C 3139.808594 2012.628906 3170.171875 1978.210938 3170.171875 1978.210938 L 3176.921875 1983.609375 C 3176.921875 1983.609375 3203.121094 1980.910156 3210.601562 1970.121094 C 3218.078125 1959.320312 3205.261719 1914.789062 3205.261719 1914.789062 L 3136.601562 1914.789062 "/>
<path fill-rule="nonzero" fill="rgb(80.076599%, 80.076599%, 80.076599%)" fill-opacity="1" d="M 3251.808594 1289.261719 L 3251.808594 1327.050781 L 3211.101562 1320.511719 L 3221.628906 1290.960938 L 3251.808594 1289.261719 "/>
<path fill-rule="nonzero" fill="rgb(3.137207%, 40.380859%, 60.742188%)" fill-opacity="1" d="M 3262.621094 856.191406 C 3262.621094 856.191406 3152.140625 846.121094 3134.578125 856.191406 C 3117.019531 866.269531 3066.761719 861.429688 3057.648438 901.511719 C 3048.550781 941.578125 3091.058594 1137.441406 3088.019531 1154.140625 C 3084.980469 1170.839844 3089.539062 1260.421875 3089.539062 1260.421875 L 3287.921875 1283.191406 L 3262.621094 856.191406 "/>
<path fill-rule="nonzero" fill="rgb(97.65625%, 78.125%, 70.506287%)" fill-opacity="1" d="M 3308.171875 874.78125 C 3294.511719 955.25 3217.070312 955.25 3217.070312 955.25 L 3217.070312 874.78125 L 3273.25 809.488281 L 3308.171875 874.78125 "/>
<path fill-rule="nonzero" fill="rgb(88.28125%, 70.117188%, 63.476562%)" fill-opacity="1" d="M 3217.070312 913.941406 L 3217.070312 877.960938 C 3237.851562 857.691406 3269.878906 828.050781 3276.25 828.050781 C 3277.039062 828.050781 3277.429688 828.5 3277.371094 829.480469 C 3276.511719 842.269531 3257.660156 886.121094 3243.390625 898.980469 C 3235.109375 906.441406 3224.511719 911.238281 3217.070312 913.941406 "/>
<path fill-rule="nonzero" fill="rgb(3.137207%, 40.380859%, 60.742188%)" fill-opacity="1" d="M 3308.171875 874.78125 L 3391.671875 904.800781 L 3440.25 1313.558594 L 3456.960938 1419.828125 C 3456.960938 1419.828125 3406.851562 1513.96875 3262.621094 1466.898438 L 3244.75 950.238281 C 3244.75 950.238281 3308.171875 941.078125 3308.171875 874.78125 "/>
<path fill-rule="nonzero" fill="rgb(94.921875%, 76.951599%, 70.117188%)" fill-opacity="1" d="M 3135.089844 753.320312 C 3135.089844 753.320312 3130.53125 823.160156 3148.75 852.011719 C 3166.96875 880.851562 3185.191406 917.289062 3218.589844 900.589844 C 3251.988281 883.890625 3280.839844 829.058594 3280.839844 829.058594 C 3280.839844 829.058594 3285.390625 747.25 3267.171875 741.171875 C 3248.960938 735.101562 3135.429688 723.070312 3135.089844 753.320312 "/>
<path fill-rule="nonzero" fill="rgb(0%, 44.309998%, 73.631287%)" fill-opacity="1" d="M 3475.179688 1082.78125 C 3475.179688 1094.929688 3478.210938 1192.089844 3461.511719 1230.050781 C 3444.808594 1268.011719 3279.320312 1286.230469 3281.351562 1275.601562 C 3281.660156 1273.980469 3281.609375 1271.351562 3281.320312 1268.050781 C 3279.671875 1249.621094 3270.210938 1210.308594 3270.210938 1210.308594 L 3369.539062 1163.25 C 3369.539062 1163.25 3361.308594 1105.550781 3349.160156 1046.339844 C 3337.019531 987.128906 3380.398438 920.839844 3380.398438 920.839844 C 3382.820312 919.5 3389.25 905.308594 3391.671875 904.800781 C 3425.761719 897.488281 3466.691406 964.140625 3475.390625 1003.828125 C 3484.71875 1046.339844 3475.179688 1070.628906 3475.179688 1082.78125 "/>
<path fill-rule="nonzero" fill="rgb(3.529358%, 25.87738%, 31.762695%)" fill-opacity="1" d="M 3298.230469 856.191406 C 3298.230469 856.191406 3321.550781 858.078125 3329.28125 882.371094 C 3337.011719 906.660156 3317.820312 949.171875 3313.75 965.871094 C 3309.691406 982.578125 3298.230469 1060.011719 3298.230469 1060.011719 L 3270.210938 1072.148438 L 3281.339844 1108.589844 L 3254.019531 1218.429688 L 3244.75 950.238281 C 3244.75 950.238281 3315.730469 926.898438 3298.230469 856.191406 "/>
<path fill-rule="nonzero" fill="rgb(3.529358%, 25.87738%, 31.762695%)" fill-opacity="1" d="M 3197.171875 904.800781 L 3197.171875 921.160156 L 3217.070312 932.960938 L 3218.589844 900.589844 L 3197.171875 904.800781 "/>
<path fill-rule="nonzero" fill="rgb(16.868591%, 11.376953%, 11.767578%)" fill-opacity="1" d="M 3089.800781 737.429688 C 3074.050781 716.488281 3068.53125 688.21875 3075.238281 662.890625 C 3084.980469 673.789062 3098.53125 681.210938 3112.949219 683.578125 C 3106.949219 676.238281 3104.488281 666.140625 3106.441406 656.871094 C 3116.488281 673.121094 3139.859375 673.660156 3158.570312 669.75 C 3177.28125 665.851562 3197.699219 659.628906 3214.640625 668.488281 C 3225.449219 674.140625 3232.578125 685 3242.640625 691.898438 C 3254.300781 699.898438 3268.96875 702.011719 3281.691406 708.179688 C 3309.128906 721.480469 3324.699219 754.5 3319.601562 784.558594 C 3314.5 814.609375 3317.128906 837.210938 3287.921875 845.929688 C 3290 831.761719 3265.269531 820.089844 3262.980469 805.949219 C 3260.691406 791.808594 3253.289062 777.761719 3240.671875 771.011719 C 3213.550781 756.5 3184.871094 779.289062 3157.050781 776.910156 C 3132.859375 774.828125 3104.039062 756.359375 3089.800781 737.429688 "/>
<path fill-rule="nonzero" fill="rgb(94.921875%, 76.951599%, 70.117188%)" fill-opacity="1" d="M 3285.730469 803.761719 C 3285.730469 817.96875 3278.78125 829.480469 3270.210938 829.480469 C 3261.640625 829.480469 3254.699219 817.96875 3254.699219 803.761719 C 3254.699219 789.558594 3261.640625 778.039062 3270.210938 778.039062 C 3278.78125 778.039062 3285.730469 789.558594 3285.730469 803.761719 "/>
<path fill-rule="nonzero" fill="rgb(97.65625%, 78.125%, 70.506287%)" fill-opacity="1" d="M 2903.238281 1034.941406 C 2903.238281 1034.941406 2843.578125 1073.769531 2872.429688 1120.03125 L 2903.238281 1034.941406 "/>
<path fill-rule="nonzero" fill="rgb(0%, 39.988708%, 66.601562%)" fill-opacity="1" d="M 3296.148438 1278.601562 C 3286.910156 1278.601562 3281.320312 1277.679688 3281.328125 1275.789062 C 3281.328125 1275.730469 3281.328125 1275.660156 3281.351562 1275.601562 C 3281.488281 1274.839844 3281.558594 1273.859375 3281.558594 1272.691406 C 3281.558594 1271.371094 3281.46875 1269.800781 3281.320312 1268.050781 C 3313.019531 1261.769531 3384.890625 1264.351562 3429.511719 1236.261719 C 3467.050781 1212.621094 3463.800781 1071.691406 3456.960938 1013.410156 C 3451.910156 970.359375 3409.628906 926.308594 3391.671875 904.800781 C 3393.410156 904.429688 3395.179688 904.25 3396.960938 904.25 C 3429.871094 904.25 3467.128906 966.171875 3475.390625 1003.828125 C 3478.449219 1017.78125 3479.480469 1029.769531 3479.480469 1040.011719 C 3479.480469 1060.96875 3475.179688 1074.621094 3475.179688 1082.78125 C 3475.179688 1086.011719 3475.390625 1095.230469 3475.390625 1107.75 C 3475.390625 1142.371094 3473.769531 1202.171875 3461.511719 1230.050781 C 3447.980469 1260.800781 3336.808594 1278.601562 3296.148438 1278.601562 "/>
<path fill-rule="nonzero" fill="rgb(2.745056%, 36.473083%, 54.881287%)" fill-opacity="1" d="M 3352.269531 1430.589844 C 3332.421875 1430.589844 3316.570312 1427.410156 3316.570312 1427.410156 L 3306.21875 1329.089844 L 3412.800781 1308.160156 L 3422.539062 1402.980469 C 3408.410156 1425.578125 3377.191406 1430.589844 3352.269531 1430.589844 "/>
<path fill-rule="nonzero" fill="rgb(94.53125%, 35.301208%, 14.109802%)" fill-opacity="1" d="M 2649.238281 2127.339844 C 2649.238281 2127.339844 2713.011719 2148.601562 2725.160156 2147.078125 C 2737.300781 2145.558594 2772.21875 2087.871094 2772.21875 2087.871094 L 2668.980469 2055.980469 L 2649.238281 2127.339844 "/>
<path fill-rule="nonzero" fill="rgb(98.4375%, 68.943787%, 23.143005%)" fill-opacity="1" d="M 2620.898438 1814.691406 L 2616.351562 1825.710938 C 2616.351562 1825.710938 2646.628906 1905.300781 2688.371094 1956.589844 C 2705.980469 1978.230469 2725.628906 1994.828125 2745.910156 1998.289062 C 2814.230469 2009.929688 2894.699219 1983.609375 2894.699219 1983.609375 L 2620.898438 1814.691406 "/>
<path fill-rule="nonzero" fill="rgb(94.53125%, 35.301208%, 14.109802%)" fill-opacity="1" d="M 2966.050781 859.089844 L 3243.390625 1020.03125 L 3321.328125 994.71875 L 3053.101562 835.808594 L 2966.050781 859.089844 "/>
<path fill-rule="nonzero" fill="rgb(75.78125%, 15.281677%, 17.651367%)" fill-opacity="1" d="M 2951.878906 900.589844 L 2966.050781 859.089844 L 3243.390625 1020.03125 L 3230.230469 1062.539062 L 2951.878906 900.589844 "/>
<path fill-rule="nonzero" fill="rgb(75.78125%, 15.281677%, 17.651367%)" fill-opacity="1" d="M 3321.328125 994.71875 L 3312.949219 1034.941406 L 3230.230469 1062.539062 L 3243.390625 1020.03125 L 3321.328125 994.71875 "/>
<path fill-rule="nonzero" fill="rgb(98.4375%, 68.943787%, 23.143005%)" fill-opacity="1" d="M 2951.878906 900.589844 L 2620.898438 1814.691406 C 2620.898438 1814.691406 2709.96875 1937.050781 2892.171875 1983.609375 L 3230.230469 1062.539062 L 2951.878906 900.589844 "/>
<path fill-rule="nonzero" fill="rgb(96.875%, 57.617188%, 11.767578%)" fill-opacity="1" d="M 3312.949219 1034.941406 L 2983.261719 1959.320312 L 2892.171875 1983.609375 L 3230.230469 1062.539062 L 3312.949219 1034.941406 "/>
<path fill-rule="nonzero" fill="rgb(98.4375%, 68.943787%, 23.143005%)" fill-opacity="1" d="M 2668.980469 2055.980469 L 2688.371094 1956.589844 L 2828.570312 1998.050781 L 2772.21875 2087.871094 C 2772.21875 2087.871094 2732.75 2110.640625 2668.980469 2055.980469 "/>
<path fill-rule="nonzero" fill="rgb(83.984375%, 28.24707%, 11.376953%)" fill-opacity="1" d="M 2283.339844 2339.898438 L 2328.890625 2376.328125 L 2725.160156 2147.078125 L 2649.238281 2127.339844 L 2283.339844 2339.898438 "/>
<path fill-rule="nonzero" fill="rgb(97.65625%, 78.125%, 70.506287%)" fill-opacity="1" d="M 3270.210938 1219.148438 C 3270.210938 1219.148438 3197.011719 1178.359375 3188.058594 1193.398438 C 3179.121094 1208.449219 3218.589844 1214.390625 3218.589844 1214.390625 L 3162.421875 1219.148438 C 3162.421875 1219.148438 3139.261719 1197.128906 3136.601562 1212.019531 C 3134.460938 1224.078125 3168.21875 1238.160156 3172.148438 1238.160156 C 3176.078125 1238.160156 3203.019531 1238.160156 3203.019531 1238.160156 L 3161.398438 1242.519531 C 3161.398438 1242.519531 3130.488281 1216.371094 3125.941406 1223.898438 C 3121.378906 1231.429688 3147.230469 1254.410156 3156.339844 1256.78125 C 3165.449219 1259.160156 3201.890625 1254.011719 3201.890625 1254.011719 C 3201.890625 1254.011719 3159.359375 1268.699219 3153.039062 1268.089844 C 3146.730469 1267.480469 3133.050781 1256.441406 3129.511719 1261.960938 C 3125.980469 1267.480469 3137.109375 1280.160156 3143.691406 1282.140625 C 3150.269531 1284.121094 3201.378906 1276.199219 3201.378906 1276.199219 C 3201.378906 1276.199219 3138.410156 1291.328125 3138.261719 1299.609375 C 3138.121094 1307.890625 3269.710938 1285.640625 3280.328125 1272.601562 L 3270.210938 1219.148438 "/>
<path fill-rule="nonzero" fill="rgb(45.872498%, 29.80957%, 14.109802%)" fill-opacity="1" d="M 1105.621094 2381.980469 C 1105.621094 2381.980469 1041.859375 2498.878906 1063.109375 2515.578125 C 1084.371094 2532.289062 1096.511719 2535.320312 1117.769531 2515.578125 C 1139.03125 2495.851562 1148.128906 2432.078125 1148.128906 2432.078125 C 1148.128906 2432.078125 1160.28125 2421.449219 1160.28125 2415.378906 C 1160.28125 2409.308594 1158.761719 2381.980469 1158.761719 2381.980469 C 1158.761719 2381.980469 1106.078125 2406.210938 1105.621094 2381.980469 "/>
<path fill-rule="nonzero" fill="rgb(45.872498%, 29.80957%, 14.109802%)" fill-opacity="1" d="M 1351.578125 2257.480469 C 1351.578125 2257.480469 1340.949219 2298.46875 1351.578125 2309.101562 C 1362.210938 2319.730469 1383.460938 2318.210938 1383.460938 2318.210938 C 1383.460938 2318.210938 1432.050781 2372.871094 1468.488281 2365.28125 C 1504.921875 2357.691406 1521.628906 2354.648438 1500.371094 2337.949219 C 1479.109375 2321.25 1404.71875 2249.890625 1404.71875 2249.890625 L 1351.578125 2257.480469 "/>
<path fill-rule="nonzero" fill="rgb(17.259216%, 10.984802%, 10.984802%)" fill-opacity="1" d="M 1116.101562 1149.960938 C 1110.550781 1214.011719 1105 1278.058594 1099.449219 1342.109375 C 1098.800781 1349.609375 1098.25 1357.589844 1101.789062 1364.21875 C 1109.109375 1377.921875 1128.429688 1378.058594 1143.800781 1375.859375 C 1220.199219 1364.890625 1294.890625 1342.128906 1364.421875 1308.628906 C 1349.5 1291.050781 1342.441406 1267.03125 1345.460938 1244.171875 C 1355.789062 1250.199219 1369.878906 1241.601562 1373.261719 1230.121094 C 1376.640625 1218.648438 1372.25 1206.328125 1366.421875 1195.890625 C 1360.578125 1185.449219 1353.171875 1175.679688 1349.761719 1164.21875 C 1344.910156 1147.898438 1336.328125 1093.339844 1332.351562 1076.789062 C 1319.609375 1023.78125 1239.398438 1026.128906 1191.03125 1031.328125 C 1133.808594 1037.46875 1120.308594 1101.460938 1116.101562 1149.960938 "/>
<path fill-rule="nonzero" fill="rgb(96.09375%, 71.679688%, 31.37207%)" fill-opacity="1" d="M 1104.109375 1682.058594 C 1104.109375 1682.058594 1058.558594 1756.460938 1090.441406 1873.359375 C 1122.320312 1990.269531 1121.429688 2031.261719 1116.558594 2078.328125 C 1111.699219 2125.390625 1092.578125 2195.230469 1099.101562 2262.039062 C 1105.621094 2328.839844 1105.621094 2381.980469 1105.621094 2381.980469 C 1105.621094 2381.980469 1129.921875 2418.421875 1158.761719 2381.980469 C 1187.609375 2345.539062 1225.570312 2207.378906 1214.941406 2143.609375 C 1204.308594 2079.851562 1222.53125 1979.640625 1230.121094 1959.898438 C 1237.710938 1940.171875 1262 1684.371094 1262 1684.371094 L 1102.078125 1669.921875 L 1104.109375 1682.058594 "/>
<path fill-rule="nonzero" fill="rgb(96.09375%, 71.679688%, 31.37207%)" fill-opacity="1" d="M 1245.300781 1682.058594 C 1245.300781 1686.621094 1285.699219 1928.019531 1300.421875 1950.789062 C 1315.140625 1973.570312 1309.070312 2037.328125 1312.109375 2081.359375 C 1315.140625 2125.390625 1351.578125 2257.480469 1351.578125 2257.480469 C 1351.578125 2257.480469 1400.171875 2283.289062 1404.71875 2249.890625 C 1409.269531 2216.488281 1423.089844 2051.839844 1418.460938 2020.300781 C 1413.828125 1988.75 1418.539062 1940.171875 1418.460938 1908.28125 C 1418.378906 1876.398438 1391.871094 1702.308594 1391.871094 1702.308594 L 1245.300781 1682.058594 "/>
<path fill-rule="nonzero" fill="rgb(94.921875%, 71.289062%, 36.083984%)" fill-opacity="1" d="M 1277.460938 1246.828125 C 1277.460938 1246.828125 1340.949219 1250.121094 1352.089844 1282.890625 C 1363.21875 1315.660156 1423.949219 1429.019531 1423.949219 1429.019531 L 1559.578125 1442.179688 L 1529.21875 1497.851562 L 1370.308594 1507.96875 C 1370.308594 1507.96875 1277.730469 1315.660156 1277.460938 1301.488281 C 1277.191406 1287.320312 1277.460938 1246.828125 1277.460938 1246.828125 "/>
<path fill-rule="nonzero" fill="rgb(98.826599%, 78.125%, 43.920898%)" fill-opacity="1" d="M 1292.371094 1279.171875 C 1292.371094 1279.171875 1335.890625 1336.410156 1336.898438 1341.210938 C 1337.921875 1346.019531 1396.621094 1387.519531 1391.558594 1415.859375 C 1386.5 1444.199219 1373.339844 1474.570312 1373.339844 1542.378906 C 1373.339844 1610.199219 1391.871094 1702.308594 1391.871094 1702.308594 C 1391.871094 1702.308594 1260.988281 1753.929688 1102.078125 1669.921875 C 1102.078125 1669.921875 1154.710938 1566.679688 1158.761719 1539.351562 C 1162.808594 1512.019531 1151.679688 1506.960938 1138.519531 1475.578125 C 1125.359375 1444.199219 1065.640625 1350.070312 1085.890625 1334.890625 C 1106.128906 1319.710938 1136.5 1313.628906 1136.5 1313.628906 C 1136.5 1313.628906 1259.761719 1261.148438 1266.101562 1263.019531 C 1272.441406 1264.898438 1279.210938 1249.78125 1292.371094 1279.171875 "/>
<path fill-rule="nonzero" fill="rgb(98.4375%, 78.90625%, 71.289062%)" fill-opacity="1" d="M 1193.179688 1224.558594 L 1158.761719 1309.578125 C 1158.761719 1309.578125 1232.070312 1368.289062 1256.269531 1350.070312 C 1256.269531 1350.070312 1273.140625 1351.078125 1274.148438 1339.949219 C 1275.160156 1328.820312 1251.980469 1253.910156 1251.980469 1253.910156 L 1193.179688 1224.558594 "/>
<path fill-rule="nonzero" fill="rgb(94.921875%, 94.921875%, 94.921875%)" fill-opacity="1" d="M 1196.75 1336.578125 C 1200.261719 1336.578125 1245.058594 1355.910156 1274.148438 1324.75 L 1280.558594 1460.730469 L 1196.75 1336.578125 "/>
<path fill-rule="nonzero" fill="rgb(96.09375%, 71.679688%, 31.37207%)" fill-opacity="1" d="M 1263.691406 1281.921875 C 1263.691406 1281.921875 1284.660156 1431.71875 1280.558594 1453.988281 L 1305.53125 1369.300781 C 1305.53125 1369.300781 1312.609375 1342.480469 1296.421875 1341.210938 C 1280.21875 1339.949219 1294.390625 1317.679688 1298.441406 1306.550781 C 1302.488281 1295.410156 1277.28125 1261.738281 1266.101562 1263.019531 C 1254.921875 1264.308594 1263.691406 1281.921875 1263.691406 1281.921875 "/>
<path fill-rule="nonzero" fill="rgb(98.4375%, 78.90625%, 71.289062%)" fill-opacity="1" d="M 1208.359375 1092.980469 C 1208.359375 1092.980469 1323.75 1070.710938 1325.769531 1123.339844 C 1327.789062 1175.980469 1299.789062 1249.191406 1297.769531 1255.261719 C 1295.738281 1261.339844 1281.351562 1279.21875 1267.128906 1279.21875 C 1252.890625 1279.21875 1195.199219 1267.070312 1181.03125 1220.511719 C 1166.859375 1173.949219 1208.359375 1092.980469 1208.359375 1092.980469 "/>
<path fill-rule="nonzero" fill="rgb(96.09375%, 71.679688%, 31.37207%)" fill-opacity="1" d="M 1155.050781 1287.988281 C 1147.96875 1286.980469 1135.480469 1306.878906 1136.5 1313.628906 C 1140.421875 1339.828125 1190.078125 1356.238281 1205.238281 1356.238281 C 1220.398438 1356.238281 1190.941406 1374.339844 1190.941406 1374.339844 C 1190.941406 1374.339844 1278.539062 1431.378906 1280.558594 1460.730469 C 1280.558594 1460.730469 1258.96875 1423.621094 1247.851562 1408.78125 C 1238.738281 1396.628906 1219.539062 1326.789062 1212.429688 1317.679688 C 1205.320312 1308.570312 1155.050781 1287.988281 1155.050781 1287.988281 "/>
<path fill-rule="nonzero" fill="rgb(98.4375%, 78.90625%, 71.289062%)" fill-opacity="1" d="M 1559.578125 1442.179688 C 1559.578125 1442.179688 1529.21875 1486.710938 1529.21875 1497.851562 C 1529.21875 1508.980469 1520.109375 1527.199219 1544.398438 1524.160156 C 1568.691406 1521.128906 1582.859375 1494.140625 1583.871094 1483.339844 C 1584.890625 1472.539062 1559.578125 1442.179688 1559.578125 1442.179688 "/>
<path fill-rule="nonzero" fill="rgb(17.259216%, 10.984802%, 10.984802%)" fill-opacity="1" d="M 1245.019531 1120.628906 C 1270.808594 1131.738281 1297.210938 1141.371094 1323.589844 1150.980469 C 1325.261719 1151.589844 1327.109375 1152.199219 1328.769531 1151.578125 C 1330.671875 1150.859375 1331.660156 1148.789062 1332.328125 1146.871094 C 1340.589844 1123.511719 1330.28125 1096 1310.878906 1080.589844 C 1291.46875 1065.179688 1264.761719 1060.941406 1240.390625 1065.398438 C 1188.421875 1074.929688 1209.011719 1105.101562 1245.019531 1120.628906 "/>
<path fill-rule="nonzero" fill="rgb(37.646484%, 21.972656%, 7.446289%)" fill-opacity="1" d="M 1490.25 1367.78125 L 1329.820312 1465.460938 C 1329.820312 1465.460938 1273.140625 1518.089844 1273.140625 1580.851562 C 1273.140625 1643.601562 1273.140625 1928.128906 1273.140625 1928.128906 L 1562.621094 1758.988281 L 1554.519531 1412.828125 C 1554.519531 1412.828125 1550.980469 1361.710938 1490.25 1367.78125 "/>
<path fill-rule="nonzero" fill="rgb(25.87738%, 12.939453%, 4.315186%)" fill-opacity="1" d="M 1273.140625 1928.128906 L 1169.390625 1863.210938 L 1169.390625 1515.050781 C 1169.390625 1515.050781 1181.199219 1444.941406 1233.75 1400.539062 C 1233.75 1400.539062 1383.5 1316.738281 1402.191406 1310.601562 C 1439.128906 1298.449219 1446.21875 1313.628906 1466.550781 1327.800781 C 1500.429688 1351.429688 1520.109375 1365.761719 1540.550781 1381.859375 C 1540.550781 1381.859375 1519.558594 1370.570312 1500.878906 1373.351562 C 1473.628906 1377.398438 1392.710938 1428.96875 1384.890625 1433.5 C 1377.078125 1438.039062 1334.078125 1456.859375 1317.640625 1478.441406 C 1301.210938 1500.03125 1280.03125 1534.261719 1276.839844 1552.421875 C 1273.640625 1570.578125 1273.140625 1636.519531 1273.140625 1642.589844 C 1273.140625 1648.660156 1273.140625 1928.128906 1273.140625 1928.128906 "/>
<path fill-rule="nonzero" fill="rgb(98.4375%, 78.90625%, 71.289062%)" fill-opacity="1" d="M 1202.640625 1628.75 C 1202.640625 1628.75 1257.039062 1615.261719 1266.101562 1609.859375 C 1275.160156 1604.460938 1281.78125 1602.441406 1277.460938 1613.910156 C 1273.140625 1625.378906 1256.269531 1630.101562 1257.621094 1641.578125 C 1258.96875 1653.050781 1279.210938 1673.289062 1287.980469 1685.441406 C 1296.761719 1697.578125 1310.929688 1723.21875 1287.980469 1727.269531 C 1265.039062 1731.320312 1184.921875 1700.28125 1178.078125 1682.058594 C 1178.078125 1682.058594 1165.851562 1635.839844 1195.199219 1631.960938 L 1202.640625 1628.75 "/>
<path fill-rule="nonzero" fill="rgb(96.484375%, 70.896912%, 34.104919%)" fill-opacity="1" d="M 1072.21875 1348.050781 C 1072.21875 1348.050781 1058.558594 1376.890625 1066.148438 1430.03125 C 1073.738281 1483.171875 1025.160156 1549.96875 1038.820312 1589.449219 C 1052.480469 1628.921875 1178.078125 1682.058594 1178.078125 1682.058594 C 1178.078125 1682.058594 1180.019531 1631.960938 1195.199219 1631.960938 C 1210.378906 1631.960938 1108.660156 1559.078125 1108.660156 1559.078125 C 1108.660156 1559.078125 1167.871094 1508.980469 1167.871094 1452.808594 C 1167.871094 1396.628906 1163.910156 1361.058594 1137.511719 1341.210938 C 1111.109375 1321.371094 1072.21875 1348.050781 1072.21875 1348.050781 "/>
</svg>
